<?xml version="1.0" encoding="UTF-8" standalone="no"?>
<!DOCTYPE svg PUBLIC "-//W3C//DTD SVG 1.1//EN"
 "http://www.w3.org/Graphics/SVG/1.1/DTD/svg11.dtd">
<!-- Generated by graphviz version 8.0.5 (20230430.1635)
 -->
<!-- Pages: 1 -->
<svg width="982px" height="437px"
 viewBox="0.00 0.00 982.00 436.75" xmlns="http://www.w3.org/2000/svg" xmlns:xlink="http://www.w3.org/1999/xlink">
<g id="graph0" class="graph" transform="scale(1.0 1.0) rotate(0.0) translate(4.0 432.75)">
<!-- 1 -->
<g id="node1" class="node">
<title>1</title>
<ellipse fill="none" stroke="black" stroke-width="2" cx="410" cy="-225.75" rx="18" ry="18"/>
<ellipse fill="none" stroke="black" stroke-width="2" cx="410" cy="-225.75" rx="22" ry="22"/>
<text text-anchor="middle" x="410" y="-220.32" font-family="Times New Roman,serif" font-size="14.00">1</text>
</g>
<!-- 1&#45;&gt;1 -->
<g id="edge5" class="edge">
<title>1&#45;&gt;1</title>
<path fill="none" stroke="black" d="M427.81,-239.31C446.7,-247.8 468,-243.28 468,-225.75 468,-211.37 453.67,-205.74 438.09,-208.87"/>
<polygon fill="black" stroke="black" points="437.26,-205.79 428.81,-212.19 439.41,-212.45 437.26,-205.79"/>
<text text-anchor="middle" x="516.38" y="-220.32" font-family="Times New Roman,serif" font-size="14.00">g,ra0,ra1,l,r0,r1,p</text>
</g>
<!-- 2 -->
<g id="node2" class="node">
<title>2</title>
<ellipse fill="none" stroke="black" stroke-width="2" cx="22" cy="-22" rx="18" ry="18"/>
<ellipse fill="none" stroke="black" stroke-width="2" cx="22" cy="-22" rx="22" ry="22"/>
<text text-anchor="middle" x="22" y="-16.57" font-family="Times New Roman,serif" font-size="14.00">2</text>
</g>
<!-- 1&#45;&gt;2 -->
<g id="edge1" class="edge">
<title>1&#45;&gt;2</title>
<path fill="none" stroke="black" d="M389.14,-217.91C323.61,-196.43 126.25,-131.75 126.25,-131.75 126.25,-131.75 74.84,-78.13 44.23,-46.19"/>
<polygon fill="black" stroke="black" points="47.38,-44.38 37.94,-39.58 42.33,-49.22 47.38,-44.38"/>
<text text-anchor="middle" x="133.38" y="-118.45" font-family="Times New Roman,serif" font-size="14.00">s0</text>
</g>
<!-- 3 -->
<g id="node3" class="node">
<title>3</title>
<ellipse fill="none" stroke="black" stroke-width="2" cx="273" cy="-22" rx="18" ry="18"/>
<ellipse fill="none" stroke="black" stroke-width="2" cx="273" cy="-22" rx="22" ry="22"/>
<text text-anchor="middle" x="273" y="-16.57" font-family="Times New Roman,serif" font-size="14.00">3</text>
</g>
<!-- 1&#45;&gt;3 -->
<g id="edge2" class="edge">
<title>1&#45;&gt;3</title>
<path fill="none" stroke="black" d="M393.79,-210.22C364.61,-184.06 306.25,-131.75 306.25,-131.75 306.25,-131.75 292.23,-85.91 282.4,-53.75"/>
<polygon fill="black" stroke="black" points="285.53,-52.99 279.25,-44.46 278.83,-55.04 285.53,-52.99"/>
<text text-anchor="middle" x="316.38" y="-118.45" font-family="Times New Roman,serif" font-size="14.00">sa1</text>
</g>
<!-- 4 -->
<g id="node4" class="node">
<title>4</title>
<ellipse fill="none" stroke="black" stroke-width="2" cx="518" cy="-22" rx="18" ry="18"/>
<ellipse fill="none" stroke="black" stroke-width="2" cx="518" cy="-22" rx="22" ry="22"/>
<text text-anchor="middle" x="518" y="-16.57" font-family="Times New Roman,serif" font-size="14.00">4</text>
</g>
<!-- 1&#45;&gt;4 -->
<g id="edge3" class="edge">
<title>1&#45;&gt;4</title>
<path fill="none" stroke="black" d="M418.19,-205.06C431.23,-173.72 455.25,-116 455.25,-116 455.25,-116 481.42,-77.22 499.96,-49.74"/>
<polygon fill="black" stroke="black" points="503.21,-52.18 505.9,-41.93 497.41,-48.26 503.21,-52.18"/>
<text text-anchor="middle" x="462.38" y="-118.45" font-family="Times New Roman,serif" font-size="14.00">s1</text>
</g>
<!-- 5 -->
<g id="node5" class="node">
<title>5</title>
<ellipse fill="none" stroke="black" stroke-width="2" cx="769" cy="-22" rx="18" ry="18"/>
<ellipse fill="none" stroke="black" stroke-width="2" cx="769" cy="-22" rx="22" ry="22"/>
<text text-anchor="middle" x="769" y="-16.57" font-family="Times New Roman,serif" font-size="14.00">5</text>
</g>
<!-- 1&#45;&gt;5 -->
<g id="edge4" class="edge">
<title>1&#45;&gt;5</title>
<path fill="none" stroke="black" d="M428.8,-214.19C487.91,-180.97 670.28,-78.48 740.78,-38.86"/>
<polygon fill="black" stroke="black" points="741.95,-41.65 748.96,-33.7 738.52,-35.55 741.95,-41.65"/>
<text text-anchor="middle" x="610.38" y="-118.45" font-family="Times New Roman,serif" font-size="14.00">sa0</text>
</g>
<!-- 2&#45;&gt;1 -->
<g id="edge6" class="edge">
<title>2&#45;&gt;1</title>
<path fill="none" stroke="black" d="M41.32,-33.04C104.57,-65.94 305.76,-170.55 381.13,-209.74"/>
<polygon fill="black" stroke="black" points="379.01,-213.1 389.49,-214.61 382.24,-206.89 379.01,-213.1"/>
<text text-anchor="middle" x="237" y="-118.45" font-family="Times New Roman,serif" font-size="14.00">r0,l</text>
</g>
<!-- 2&#45;&gt;2 -->
<g id="edge7" class="edge">
<title>2&#45;&gt;2</title>
<path fill="none" stroke="black" d="M39.22,-36.33C58.25,-45.88 80,-41.1 80,-22 80,-6.18 65.08,-0.19 49.15,-4.02"/>
<polygon fill="black" stroke="black" points="48.39,-0.93 40.22,-7.67 50.81,-7.5 48.39,-0.93"/>
<text text-anchor="middle" x="156.5" y="-16.57" font-family="Times New Roman,serif" font-size="14.00">g,s0,s1,ra0,ra1,r1,sa0,sa1,p</text>
</g>
<!-- 3&#45;&gt;1 -->
<g id="edge8" class="edge">
<title>3&#45;&gt;1</title>
<path fill="none" stroke="black" d="M285.13,-40.86C309.23,-76.35 363.25,-155.9 391.69,-197.78"/>
<polygon fill="black" stroke="black" points="389.33,-199.54 397.84,-205.85 395.12,-195.61 389.33,-199.54"/>
<text text-anchor="middle" x="358" y="-118.45" font-family="Times New Roman,serif" font-size="14.00">ra1,l</text>
</g>
<!-- 3&#45;&gt;3 -->
<g id="edge9" class="edge">
<title>3&#45;&gt;3</title>
<path fill="none" stroke="black" d="M290.22,-36.33C309.25,-45.88 331,-41.1 331,-22 331,-6.18 316.08,-0.19 300.15,-4.02"/>
<polygon fill="black" stroke="black" points="299.39,-0.93 291.22,-7.67 301.81,-7.5 299.39,-0.93"/>
<text text-anchor="middle" x="404.5" y="-16.57" font-family="Times New Roman,serif" font-size="14.00">g,s0,s1,ra0,r0,r1,sa0,sa1,p</text>
</g>
<!-- 4&#45;&gt;1 -->
<g id="edge10" class="edge">
<title>4&#45;&gt;1</title>
<path fill="none" stroke="black" d="M509.85,-42.69C496.88,-74.03 473,-131.75 473,-131.75 473,-131.75 446.73,-170.53 428.12,-198.01"/>
<polygon fill="black" stroke="black" points="424.86,-195.58 422.15,-205.82 430.65,-199.5 424.86,-195.58"/>
<text text-anchor="middle" x="488" y="-118.45" font-family="Times New Roman,serif" font-size="14.00">r1,l</text>
</g>
<!-- 4&#45;&gt;4 -->
<g id="edge11" class="edge">
<title>4&#45;&gt;4</title>
<path fill="none" stroke="black" d="M535.22,-36.33C554.25,-45.88 576,-41.1 576,-22 576,-6.18 561.08,-0.19 545.15,-4.02"/>
<polygon fill="black" stroke="black" points="544.39,-0.93 536.22,-7.67 546.81,-7.5 544.39,-0.93"/>
<text text-anchor="middle" x="652.5" y="-16.57" font-family="Times New Roman,serif" font-size="14.00">g,s0,s1,ra0,ra1,r0,sa0,sa1,p</text>
</g>
<!-- 5&#45;&gt;1 -->
<g id="edge12" class="edge">
<title>5&#45;&gt;1</title>
<path fill="none" stroke="black" d="M751.83,-36.33C714.45,-65.37 629,-131.75 629,-131.75 629,-131.75 500.34,-186.39 440.25,-211.9"/>
<polygon fill="black" stroke="black" points="439.05,-209.04 431.21,-216.17 441.78,-215.48 439.05,-209.04"/>
<text text-anchor="middle" x="659" y="-118.45" font-family="Times New Roman,serif" font-size="14.00">ra0,l</text>
</g>
<!-- 5&#45;&gt;5 -->
<g id="edge13" class="edge">
<title>5&#45;&gt;5</title>
<path fill="none" stroke="black" d="M786.22,-36.33C805.25,-45.88 827,-41.1 827,-22 827,-6.18 812.08,-0.19 796.15,-4.02"/>
<polygon fill="black" stroke="black" points="795.39,-0.93 787.22,-7.67 797.81,-7.5 795.39,-0.93"/>
<text text-anchor="middle" x="900.5" y="-16.57" font-family="Times New Roman,serif" font-size="14.00">g,s0,s1,ra1,r0,r1,sa0,sa1,p</text>
</g>
<g id="node6" class="node">
<title></title>
</g>
<!-- &#45;&gt;1 -->
<g id="edge14" class="edge">
<title>&#45;&gt;1</title>
<path fill="none" stroke="blue" d="M410,-392.86C410,-362.42 410,-297.89 410,-258.82"/>
<polygon fill="blue" stroke="blue" points="413.5,-259.06 410,-249.06 406.5,-259.06 413.5,-259.06"/>
</g>
</g>
</svg>
