<?xml version="1.0" encoding="UTF-8" standalone="no"?>
<!DOCTYPE svg PUBLIC "-//W3C//DTD SVG 1.1//EN"
 "http://www.w3.org/Graphics/SVG/1.1/DTD/svg11.dtd">
<!-- Generated by graphviz version 8.0.5 (20230430.1635)
 -->
<!-- Pages: 1 -->
<svg width="300px" height="812px"
 viewBox="0.00 0.00 299.75 812.25" xmlns="http://www.w3.org/2000/svg" xmlns:xlink="http://www.w3.org/1999/xlink">
<g id="graph0" class="graph" transform="scale(1.0 1.0) rotate(0.0) translate(4.0 808.25)">
<!-- 0 -->
<g id="node1" class="node">
<title>0</title>
<ellipse fill="none" stroke="black" stroke-width="2" cx="130" cy="-605.25" rx="18" ry="18"/>
<text text-anchor="middle" x="130" y="-599.83" font-family="Times New Roman,serif" font-size="14.00">0</text>
</g>
<!-- 1 -->
<g id="node2" class="node">
<title>1</title>
<ellipse fill="none" stroke="black" stroke-width="2" cx="90" cy="-409.5" rx="18" ry="18"/>
<text text-anchor="middle" x="90" y="-404.07" font-family="Times New Roman,serif" font-size="14.00">1</text>
</g>
<!-- 0&#45;&gt;1 -->
<g id="edge1" class="edge">
<title>0&#45;&gt;1</title>
<path fill="none" stroke="black" d="M124.08,-587.93C114.77,-562.23 97.75,-515.25 97.75,-515.25 97.75,-515.25 94.36,-469.48 92.07,-438.45"/>
<polygon fill="black" stroke="black" points="95.51,-438.51 91.28,-428.8 88.53,-439.03 95.51,-438.51"/>
<text text-anchor="middle" x="109.62" y="-501.95" font-family="Times New Roman,serif" font-size="14.00">beta</text>
</g>
<!-- 2 -->
<g id="node3" class="node">
<title>2</title>
<ellipse fill="none" stroke="black" stroke-width="2" cx="171" cy="-409.5" rx="18" ry="18"/>
<text text-anchor="middle" x="171" y="-404.07" font-family="Times New Roman,serif" font-size="14.00">2</text>
</g>
<!-- 0&#45;&gt;2 -->
<g id="edge2" class="edge">
<title>0&#45;&gt;2</title>
<path fill="none" stroke="black" d="M133.57,-587.39C140.65,-553.9 156.57,-478.7 165.19,-437.96"/>
<polygon fill="black" stroke="black" points="168.77,-438.96 167.41,-428.45 161.92,-437.51 168.77,-438.96"/>
<text text-anchor="middle" x="166.62" y="-501.95" font-family="Times New Roman,serif" font-size="14.00">alpha</text>
</g>
<!-- 4 -->
<g id="node5" class="node">
<title>4</title>
<ellipse fill="none" stroke="black" stroke-width="2" cx="18" cy="-213.75" rx="18" ry="18"/>
<text text-anchor="middle" x="18" y="-208.32" font-family="Times New Roman,serif" font-size="14.00">4</text>
</g>
<!-- 1&#45;&gt;4 -->
<g id="edge3" class="edge">
<title>1&#45;&gt;4</title>
<path fill="none" stroke="black" stroke-dasharray="1,5" d="M83.53,-392.18C73.36,-366.48 54.75,-319.5 54.75,-319.5 54.75,-319.5 38.21,-272.35 27.32,-241.32"/>
<polygon fill="black" stroke="black" points="30.36,-240.39 23.74,-232.12 23.75,-242.71 30.36,-240.39"/>
<text text-anchor="middle" x="66.62" y="-306.2" font-family="Times New Roman,serif" font-size="14.00">beta</text>
</g>
<!-- 3 -->
<g id="node6" class="node">
<title>3</title>
<ellipse fill="none" stroke="black" stroke-width="2" cx="90" cy="-213.75" rx="18" ry="18"/>
<text text-anchor="middle" x="90" y="-208.32" font-family="Times New Roman,serif" font-size="14.00">3</text>
</g>
<!-- 1&#45;&gt;3 -->
<g id="edge4" class="edge">
<title>1&#45;&gt;3</title>
<path fill="none" stroke="black" d="M89.28,-391.34C88.19,-365.48 86.25,-319.5 86.25,-319.5 86.25,-319.5 86.25,-303.75 86.25,-303.75 86.25,-303.75 87.72,-268.86 88.82,-242.77"/>
<polygon fill="black" stroke="black" points="92.35,-243.05 89.28,-232.91 85.36,-242.75 92.35,-243.05"/>
<text text-anchor="middle" x="106.88" y="-306.2" font-family="Times New Roman,serif" font-size="14.00">gamma</text>
</g>
<!-- 5 -->
<g id="node7" class="node">
<title>5</title>
<ellipse fill="none" stroke="black" stroke-width="2" cx="171" cy="-213.75" rx="18" ry="18"/>
<text text-anchor="middle" x="171" y="-208.32" font-family="Times New Roman,serif" font-size="14.00">5</text>
</g>
<!-- 2&#45;&gt;5 -->
<g id="edge5" class="edge">
<title>2&#45;&gt;5</title>
<path fill="none" stroke="black" stroke-dasharray="1,5" d="M170.28,-391.34C169.19,-365.48 167.25,-319.5 167.25,-319.5 167.25,-319.5 167.25,-303.75 167.25,-303.75 167.25,-303.75 168.72,-268.86 169.82,-242.77"/>
<polygon fill="black" stroke="black" points="173.35,-243.05 170.28,-232.91 166.36,-242.75 173.35,-243.05"/>
<text text-anchor="middle" x="187.88" y="-306.2" font-family="Times New Roman,serif" font-size="14.00">gamma</text>
</g>
<!-- 6 -->
<g id="node8" class="node">
<title>6</title>
<ellipse fill="none" stroke="black" stroke-width="2" cx="252" cy="-213.75" rx="18" ry="18"/>
<text text-anchor="middle" x="252" y="-208.32" font-family="Times New Roman,serif" font-size="14.00">6</text>
</g>
<!-- 2&#45;&gt;6 -->
<g id="edge6" class="edge">
<title>2&#45;&gt;6</title>
<path fill="none" stroke="black" d="M178.33,-392.59C190.12,-366.99 212,-319.5 212,-319.5 212,-319.5 230,-272.35 241.85,-241.32"/>
<polygon fill="black" stroke="black" points="245.45,-242.71 245.75,-232.12 238.91,-240.21 245.45,-242.71"/>
<text text-anchor="middle" x="228.62" y="-306.2" font-family="Times New Roman,serif" font-size="14.00">beta</text>
</g>
<g id="node4" class="node">
<title></title>
</g>
<!-- &#45;&gt;0 -->
<g id="edge7" class="edge">
<title>&#45;&gt;0</title>
<path fill="none" stroke="blue" d="M130,-768.41C130,-737.65 130,-672.08 130,-634.42"/>
<polygon fill="blue" stroke="blue" points="133.5,-634.7 130,-624.7 126.5,-634.7 133.5,-634.7"/>
</g>
<!-- 7 -->
<g id="node9" class="node">
<title>7</title>
<ellipse fill="none" stroke="black" stroke-width="2" cx="18" cy="-18" rx="18" ry="18"/>
<text text-anchor="middle" x="18" y="-12.57" font-family="Times New Roman,serif" font-size="14.00">7</text>
</g>
<!-- 4&#45;&gt;7 -->
<g id="edge8" class="edge">
<title>4&#45;&gt;7</title>
<path fill="none" stroke="black" stroke-dasharray="1,5" d="M18,-195.56C18,-162.1 18,-87.98 18,-47.22"/>
<polygon fill="black" stroke="black" points="21.5,-47.43 18,-37.43 14.5,-47.43 21.5,-47.43"/>
<text text-anchor="middle" x="37.88" y="-110.45" font-family="Times New Roman,serif" font-size="14.00">gamma</text>
</g>
<!-- 8 -->
<g id="node10" class="node">
<title>8</title>
<ellipse fill="none" stroke="black" stroke-width="2" cx="252" cy="-18" rx="18" ry="18"/>
<text text-anchor="middle" x="252" y="-12.57" font-family="Times New Roman,serif" font-size="14.00">8</text>
</g>
<!-- 6&#45;&gt;8 -->
<g id="edge9" class="edge">
<title>6&#45;&gt;8</title>
<path fill="none" stroke="black" stroke-dasharray="1,5" d="M252,-195.56C252,-162.1 252,-87.98 252,-47.22"/>
<polygon fill="black" stroke="black" points="255.5,-47.43 252,-37.43 248.5,-47.43 255.5,-47.43"/>
<text text-anchor="middle" x="271.88" y="-110.45" font-family="Times New Roman,serif" font-size="14.00">gamma</text>
</g>
</g>
</svg>
