<?xml version="1.0" encoding="UTF-8" standalone="no"?>
<!DOCTYPE svg PUBLIC "-//W3C//DTD SVG 1.1//EN"
 "http://www.w3.org/Graphics/SVG/1.1/DTD/svg11.dtd">
<!-- Generated by graphviz version 8.0.5 (20230430.1635)
 -->
<!-- Pages: 1 -->
<svg width="510px" height="1015px"
 viewBox="0.00 0.00 509.88 1014.51" xmlns="http://www.w3.org/2000/svg" xmlns:xlink="http://www.w3.org/1999/xlink">
<g id="graph0" class="graph" transform="scale(1.0 1.0) rotate(0.0) translate(4.0 1010.51)">
<!-- 1 -->
<g id="node1" class="node">
<title>1</title>
<ellipse fill="none" stroke="black" stroke-width="2" cx="280.63" cy="-807.51" rx="18" ry="18"/>
<text text-anchor="middle" x="280.63" y="-802.08" font-family="Times New Roman,serif" font-size="14.00">0</text>
</g>
<!-- 2 -->
<g id="node2" class="node">
<title>2</title>
<ellipse fill="none" stroke="black" stroke-width="2" cx="139.63" cy="-611.76" rx="18" ry="18"/>
<text text-anchor="middle" x="139.63" y="-606.33" font-family="Times New Roman,serif" font-size="14.00">1</text>
</g>
<!-- 1&#45;&gt;2 -->
<g id="edge1" class="edge">
<title>1&#45;&gt;2</title>
<path fill="none" stroke="black" d="M270.26,-792.26C246.12,-759.09 185.98,-676.45 156.48,-635.92"/>
<polygon fill="black" stroke="black" points="158.72,-634.05 150.01,-628.03 153.06,-638.17 158.72,-634.05"/>
<text text-anchor="middle" x="221" y="-704.21" font-family="Times New Roman,serif" font-size="14.00">a1</text>
</g>
<!-- 3 -->
<g id="node3" class="node">
<title>3</title>
<ellipse fill="none" stroke="black" stroke-width="2" cx="244.63" cy="-611.76" rx="18" ry="18"/>
<text text-anchor="middle" x="244.63" y="-606.33" font-family="Times New Roman,serif" font-size="14.00">2</text>
</g>
<!-- 1&#45;&gt;3 -->
<g id="edge2" class="edge">
<title>1&#45;&gt;3</title>
<path fill="none" stroke="black" d="M275.5,-789.77C267.61,-763.99 253.38,-717.51 253.38,-717.51 253.38,-717.51 249.55,-671.74 246.96,-640.71"/>
<polygon fill="black" stroke="black" points="250.39,-640.73 246.07,-631.06 243.42,-641.31 250.39,-640.73"/>
<text text-anchor="middle" x="260.75" y="-704.21" font-family="Times New Roman,serif" font-size="14.00">b2</text>
</g>
<!-- 4 -->
<g id="node4" class="node">
<title>4</title>
<ellipse fill="none" stroke="black" stroke-width="2" cx="317.63" cy="-611.76" rx="18" ry="18"/>
<text text-anchor="middle" x="317.63" y="-606.33" font-family="Times New Roman,serif" font-size="14.00">3</text>
</g>
<!-- 1&#45;&gt;4 -->
<g id="edge3" class="edge">
<title>1&#45;&gt;4</title>
<path fill="none" stroke="black" d="M283.91,-789.31C290.31,-755.78 304.53,-681.37 312.3,-640.67"/>
<polygon fill="black" stroke="black" points="315.91,-641.39 314.35,-630.91 309.04,-640.08 315.91,-641.39"/>
<text text-anchor="middle" x="307.38" y="-704.21" font-family="Times New Roman,serif" font-size="14.00">c2</text>
</g>
<!-- 5 -->
<g id="node5" class="node">
<title>5</title>
<ellipse fill="none" stroke="black" stroke-width="2" cx="405.63" cy="-611.76" rx="18" ry="18"/>
<text text-anchor="middle" x="405.63" y="-606.33" font-family="Times New Roman,serif" font-size="14.00">4</text>
</g>
<!-- 1&#45;&gt;5 -->
<g id="edge4" class="edge">
<title>1&#45;&gt;5</title>
<path fill="none" stroke="black" d="M290.02,-791.95C311.42,-758.77 363.97,-677.33 390.2,-636.67"/>
<polygon fill="black" stroke="black" points="393.64,-638.79 396.12,-628.49 387.76,-635 393.64,-638.79"/>
<text text-anchor="middle" x="354" y="-704.21" font-family="Times New Roman,serif" font-size="14.00">a2</text>
</g>
<!-- 6 -->
<g id="node7" class="node">
<title>6</title>
<ellipse fill="none" stroke="black" stroke-width="2" cx="94.63" cy="-416.01" rx="18" ry="18"/>
<text text-anchor="middle" x="94.63" y="-410.58" font-family="Times New Roman,serif" font-size="14.00">5</text>
</g>
<!-- 2&#45;&gt;6 -->
<g id="edge5" class="edge">
<title>2&#45;&gt;6</title>
<path fill="none" stroke="black" d="M135.71,-593.9C127.93,-560.41 110.47,-485.2 101.01,-444.47"/>
<polygon fill="black" stroke="black" points="104.24,-443.91 98.56,-434.96 97.42,-445.5 104.24,-443.91"/>
<text text-anchor="middle" x="125.75" y="-508.46" font-family="Times New Roman,serif" font-size="14.00">b1</text>
</g>
<!-- 7 -->
<g id="node8" class="node">
<title>7</title>
<ellipse fill="none" stroke="black" stroke-width="2" cx="171.63" cy="-416.01" rx="18" ry="18"/>
<text text-anchor="middle" x="171.63" y="-410.58" font-family="Times New Roman,serif" font-size="14.00">6</text>
</g>
<!-- 3&#45;&gt;7 -->
<g id="edge6" class="edge">
<title>3&#45;&gt;7</title>
<path fill="none" stroke="black" d="M238.53,-594.57C225.94,-561.17 196.98,-484.3 181.62,-443.53"/>
<polygon fill="black" stroke="black" points="184.56,-442.41 177.76,-434.28 178.01,-444.88 184.56,-442.41"/>
<text text-anchor="middle" x="217" y="-508.46" font-family="Times New Roman,serif" font-size="14.00">a2</text>
</g>
<!-- 8 -->
<g id="node9" class="node">
<title>8</title>
<ellipse fill="none" stroke="black" stroke-width="2" cx="244.63" cy="-416.01" rx="18" ry="18"/>
<text text-anchor="middle" x="244.63" y="-410.58" font-family="Times New Roman,serif" font-size="14.00">7</text>
</g>
<!-- 3&#45;&gt;8 -->
<g id="edge7" class="edge">
<title>3&#45;&gt;8</title>
<path fill="none" stroke="black" d="M244.63,-593.56C244.63,-560.11 244.63,-485.99 244.63,-445.23"/>
<polygon fill="black" stroke="black" points="248.13,-445.44 244.63,-435.44 241.13,-445.44 248.13,-445.44"/>
<text text-anchor="middle" x="251" y="-508.46" font-family="Times New Roman,serif" font-size="14.00">a1</text>
</g>
<!-- 9 -->
<g id="node10" class="node">
<title>9</title>
<ellipse fill="none" stroke="black" stroke-width="2" cx="319.63" cy="-416.01" rx="18" ry="18"/>
<text text-anchor="middle" x="319.63" y="-410.58" font-family="Times New Roman,serif" font-size="14.00">8</text>
</g>
<!-- 4&#45;&gt;9 -->
<g id="edge8" class="edge">
<title>4&#45;&gt;9</title>
<path fill="none" stroke="black" d="M317.8,-593.56C318.15,-560.11 318.92,-485.99 319.34,-445.23"/>
<polygon fill="black" stroke="black" points="322.84,-445.48 319.45,-435.44 315.84,-445.41 322.84,-445.48"/>
<text text-anchor="middle" x="326.75" y="-508.46" font-family="Times New Roman,serif" font-size="14.00">b2</text>
</g>
<!-- 10 -->
<g id="node11" class="node">
<title>10</title>
<ellipse fill="none" stroke="black" stroke-width="2" cx="422.63" cy="-416.01" rx="18" ry="18"/>
<text text-anchor="middle" x="422.63" y="-410.58" font-family="Times New Roman,serif" font-size="14.00">9</text>
</g>
<!-- 5&#45;&gt;10 -->
<g id="edge9" class="edge">
<title>5&#45;&gt;10</title>
<path fill="none" stroke="black" d="M407.14,-593.56C410.07,-560.11 416.57,-485.99 420.15,-445.23"/>
<polygon fill="black" stroke="black" points="423.71,-445.71 421.1,-435.44 416.74,-445.1 423.71,-445.71"/>
<text text-anchor="middle" x="422.75" y="-508.46" font-family="Times New Roman,serif" font-size="14.00">b1</text>
</g>
<g id="node6" class="node">
<title></title>
</g>
<!-- &#45;&gt;1 -->
<g id="edge10" class="edge">
<title>&#45;&gt;1</title>
<path fill="none" stroke="blue" d="M280.63,-970.67C280.63,-939.91 280.63,-874.34 280.63,-836.68"/>
<polygon fill="blue" stroke="blue" points="284.13,-836.96 280.63,-826.96 277.13,-836.96 284.13,-836.96"/>
</g>
<!-- 11 -->
<g id="node12" class="node">
<title>11</title>
<ellipse fill="none" stroke="black" stroke-width="2" cx="19.63" cy="-218.63" rx="19.63" ry="19.63"/>
<text text-anchor="middle" x="19.63" y="-213.21" font-family="Times New Roman,serif" font-size="14.00">10</text>
</g>
<!-- 6&#45;&gt;11 -->
<g id="edge11" class="edge">
<title>6&#45;&gt;11</title>
<path fill="none" stroke="black" d="M88.36,-398.69C75.56,-365.35 46.29,-289.09 30.39,-247.66"/>
<polygon fill="black" stroke="black" points="33.32,-246.53 26.47,-238.45 26.78,-249.04 33.32,-246.53"/>
<text text-anchor="middle" x="66.38" y="-312.71" font-family="Times New Roman,serif" font-size="14.00">c1</text>
</g>
<!-- 12 -->
<g id="node13" class="node">
<title>12</title>
<ellipse fill="none" stroke="black" stroke-width="2" cx="94.63" cy="-218.63" rx="19.63" ry="19.63"/>
<text text-anchor="middle" x="94.63" y="-213.21" font-family="Times New Roman,serif" font-size="14.00">11</text>
</g>
<!-- 6&#45;&gt;12 -->
<g id="edge12" class="edge">
<title>6&#45;&gt;12</title>
<path fill="none" stroke="black" d="M94.63,-397.67C94.63,-364.29 94.63,-290.76 94.63,-249.4"/>
<polygon fill="black" stroke="black" points="98.13,-249.64 94.63,-239.64 91.13,-249.64 98.13,-249.64"/>
<text text-anchor="middle" x="101.38" y="-312.71" font-family="Times New Roman,serif" font-size="14.00">c2</text>
</g>
<!-- 13 -->
<g id="node14" class="node">
<title>13</title>
<ellipse fill="none" stroke="black" stroke-width="2" cx="169.63" cy="-218.63" rx="19.63" ry="19.63"/>
<text text-anchor="middle" x="169.63" y="-213.21" font-family="Times New Roman,serif" font-size="14.00">12</text>
</g>
<!-- 7&#45;&gt;13 -->
<g id="edge13" class="edge">
<title>7&#45;&gt;13</title>
<path fill="none" stroke="black" d="M171.45,-397.67C171.11,-364.29 170.36,-290.76 169.93,-249.4"/>
<polygon fill="black" stroke="black" points="173.42,-249.61 169.82,-239.64 166.42,-249.68 173.42,-249.61"/>
<text text-anchor="middle" x="178.38" y="-312.71" font-family="Times New Roman,serif" font-size="14.00">c1</text>
</g>
<!-- 14 -->
<g id="node15" class="node">
<title>14</title>
<ellipse fill="none" stroke="black" stroke-width="2" cx="244.63" cy="-218.63" rx="19.63" ry="19.63"/>
<text text-anchor="middle" x="244.63" y="-213.21" font-family="Times New Roman,serif" font-size="14.00">13</text>
</g>
<!-- 8&#45;&gt;14 -->
<g id="edge14" class="edge">
<title>8&#45;&gt;14</title>
<path fill="none" stroke="black" d="M244.63,-397.67C244.63,-364.29 244.63,-290.76 244.63,-249.4"/>
<polygon fill="black" stroke="black" points="248.13,-249.64 244.63,-239.64 241.13,-249.64 248.13,-249.64"/>
<text text-anchor="middle" x="251.38" y="-312.71" font-family="Times New Roman,serif" font-size="14.00">c1</text>
</g>
<!-- 15 -->
<g id="node16" class="node">
<title>15</title>
<ellipse fill="none" stroke="black" stroke-width="2" cx="319.63" cy="-218.63" rx="19.63" ry="19.63"/>
<text text-anchor="middle" x="319.63" y="-213.21" font-family="Times New Roman,serif" font-size="14.00">14</text>
</g>
<!-- 9&#45;&gt;15 -->
<g id="edge15" class="edge">
<title>9&#45;&gt;15</title>
<path fill="none" stroke="black" d="M319.63,-397.67C319.63,-364.29 319.63,-290.76 319.63,-249.4"/>
<polygon fill="black" stroke="black" points="323.13,-249.64 319.63,-239.64 316.13,-249.64 323.13,-249.64"/>
<text text-anchor="middle" x="326" y="-312.71" font-family="Times New Roman,serif" font-size="14.00">a1</text>
</g>
<!-- 16 -->
<g id="node17" class="node">
<title>16</title>
<ellipse fill="none" stroke="black" stroke-width="2" cx="394.63" cy="-218.63" rx="19.63" ry="19.63"/>
<text text-anchor="middle" x="394.63" y="-213.21" font-family="Times New Roman,serif" font-size="14.00">15</text>
</g>
<!-- 9&#45;&gt;16 -->
<g id="edge16" class="edge">
<title>9&#45;&gt;16</title>
<path fill="none" stroke="black" d="M325.89,-398.69C338.69,-365.35 367.96,-289.09 383.87,-247.66"/>
<polygon fill="black" stroke="black" points="387.47,-249.04 387.79,-238.45 380.94,-246.53 387.47,-249.04"/>
<text text-anchor="middle" x="366" y="-312.71" font-family="Times New Roman,serif" font-size="14.00">a2</text>
</g>
<!-- 17 -->
<g id="node18" class="node">
<title>17</title>
<ellipse fill="none" stroke="black" stroke-width="2" cx="469.63" cy="-218.63" rx="19.63" ry="19.63"/>
<text text-anchor="middle" x="469.63" y="-213.21" font-family="Times New Roman,serif" font-size="14.00">16</text>
</g>
<!-- 10&#45;&gt;17 -->
<g id="edge17" class="edge">
<title>10&#45;&gt;17</title>
<path fill="none" stroke="black" d="M426.72,-398.01C434.76,-364.59 452.7,-289.98 462.65,-248.63"/>
<polygon fill="black" stroke="black" points="466.24,-249.69 465.17,-239.15 459.43,-248.05 466.24,-249.69"/>
<text text-anchor="middle" x="454.38" y="-312.71" font-family="Times New Roman,serif" font-size="14.00">c2</text>
</g>
<!-- 18 -->
<g id="node19" class="node">
<title>18</title>
<ellipse fill="none" stroke="black" stroke-width="2" cx="19.63" cy="-19.63" rx="19.63" ry="19.63"/>
<text text-anchor="middle" x="19.63" y="-14.2" font-family="Times New Roman,serif" font-size="14.00">17</text>
</g>
<!-- 11&#45;&gt;18 -->
<g id="edge18" class="edge">
<title>11&#45;&gt;18</title>
<path fill="none" stroke="black" d="M19.16,-198.85C18.5,-172.31 17.38,-127 17.38,-127 17.38,-127 17.38,-111.25 17.38,-111.25 17.38,-111.25 18.24,-76.57 18.9,-50.11"/>
<polygon fill="black" stroke="black" points="22.41,-50.49 19.16,-40.41 15.41,-50.32 22.41,-50.49"/>
<text text-anchor="middle" x="33.75" y="-113.7" font-family="Times New Roman,serif" font-size="14.00">sigma</text>
</g>
<!-- 19 -->
<g id="node20" class="node">
<title>19</title>
<ellipse fill="none" stroke="black" stroke-width="2" cx="94.63" cy="-19.63" rx="19.63" ry="19.63"/>
<text text-anchor="middle" x="94.63" y="-14.2" font-family="Times New Roman,serif" font-size="14.00">18</text>
</g>
<!-- 12&#45;&gt;19 -->
<g id="edge19" class="edge">
<title>12&#45;&gt;19</title>
<path fill="none" stroke="black" d="M94.16,-198.85C93.5,-172.31 92.38,-127 92.38,-127 92.38,-127 92.38,-111.25 92.38,-111.25 92.38,-111.25 93.24,-76.57 93.9,-50.11"/>
<polygon fill="black" stroke="black" points="97.41,-50.49 94.16,-40.41 90.41,-50.32 97.41,-50.49"/>
<text text-anchor="middle" x="108.75" y="-113.7" font-family="Times New Roman,serif" font-size="14.00">sigma</text>
</g>
<!-- 20 -->
<g id="node21" class="node">
<title>20</title>
<ellipse fill="none" stroke="black" stroke-width="2" cx="169.63" cy="-19.63" rx="19.63" ry="19.63"/>
<text text-anchor="middle" x="169.63" y="-14.2" font-family="Times New Roman,serif" font-size="14.00">19</text>
</g>
<!-- 13&#45;&gt;20 -->
<g id="edge20" class="edge">
<title>13&#45;&gt;20</title>
<path fill="none" stroke="black" d="M169.16,-198.85C168.5,-172.31 167.38,-127 167.38,-127 167.38,-127 167.38,-111.25 167.38,-111.25 167.38,-111.25 168.24,-76.57 168.9,-50.11"/>
<polygon fill="black" stroke="black" points="172.41,-50.49 169.16,-40.41 165.41,-50.32 172.41,-50.49"/>
<text text-anchor="middle" x="183.75" y="-113.7" font-family="Times New Roman,serif" font-size="14.00">sigma</text>
</g>
<!-- 21 -->
<g id="node22" class="node">
<title>21</title>
<ellipse fill="none" stroke="black" stroke-width="2" cx="244.63" cy="-19.63" rx="19.63" ry="19.63"/>
<text text-anchor="middle" x="244.63" y="-14.2" font-family="Times New Roman,serif" font-size="14.00">20</text>
</g>
<!-- 14&#45;&gt;21 -->
<g id="edge21" class="edge">
<title>14&#45;&gt;21</title>
<path fill="none" stroke="black" stroke-dasharray="1,5" d="M244.16,-198.85C243.5,-172.31 242.38,-127 242.38,-127 242.38,-127 242.38,-111.25 242.38,-111.25 242.38,-111.25 243.24,-76.57 243.9,-50.11"/>
<polygon fill="black" stroke="black" points="247.41,-50.49 244.16,-40.41 240.41,-50.32 247.41,-50.49"/>
<text text-anchor="middle" x="258.75" y="-113.7" font-family="Times New Roman,serif" font-size="14.00">sigma</text>
</g>
<!-- 22 -->
<g id="node23" class="node">
<title>22</title>
<ellipse fill="none" stroke="black" stroke-width="2" cx="319.63" cy="-19.63" rx="19.63" ry="19.63"/>
<text text-anchor="middle" x="319.63" y="-14.2" font-family="Times New Roman,serif" font-size="14.00">21</text>
</g>
<!-- 15&#45;&gt;22 -->
<g id="edge22" class="edge">
<title>15&#45;&gt;22</title>
<path fill="none" stroke="black" stroke-dasharray="1,5" d="M319.16,-198.85C318.5,-172.31 317.38,-127 317.38,-127 317.38,-127 317.38,-111.25 317.38,-111.25 317.38,-111.25 318.24,-76.57 318.9,-50.11"/>
<polygon fill="black" stroke="black" points="322.41,-50.49 319.16,-40.41 315.41,-50.32 322.41,-50.49"/>
<text text-anchor="middle" x="333.75" y="-113.7" font-family="Times New Roman,serif" font-size="14.00">sigma</text>
</g>
<!-- 23 -->
<g id="node24" class="node">
<title>23</title>
<ellipse fill="none" stroke="black" stroke-width="2" cx="394.63" cy="-19.63" rx="19.63" ry="19.63"/>
<text text-anchor="middle" x="394.63" y="-14.2" font-family="Times New Roman,serif" font-size="14.00">22</text>
</g>
<!-- 16&#45;&gt;23 -->
<g id="edge23" class="edge">
<title>16&#45;&gt;23</title>
<path fill="none" stroke="black" d="M394.16,-198.85C393.5,-172.31 392.38,-127 392.38,-127 392.38,-127 392.38,-111.25 392.38,-111.25 392.38,-111.25 393.24,-76.57 393.9,-50.11"/>
<polygon fill="black" stroke="black" points="397.41,-50.49 394.16,-40.41 390.41,-50.32 397.41,-50.49"/>
<text text-anchor="middle" x="408.75" y="-113.7" font-family="Times New Roman,serif" font-size="14.00">sigma</text>
</g>
<!-- 24 -->
<g id="node25" class="node">
<title>24</title>
<ellipse fill="none" stroke="black" stroke-width="2" cx="469.63" cy="-19.63" rx="19.63" ry="19.63"/>
<text text-anchor="middle" x="469.63" y="-14.2" font-family="Times New Roman,serif" font-size="14.00">23</text>
</g>
<!-- 17&#45;&gt;24 -->
<g id="edge24" class="edge">
<title>17&#45;&gt;24</title>
<path fill="none" stroke="black" stroke-dasharray="1,5" d="M469.63,-198.74C469.63,-164.48 469.63,-91.85 469.63,-50.7"/>
<polygon fill="black" stroke="black" points="473.13,-50.75 469.63,-40.75 466.13,-50.75 473.13,-50.75"/>
<text text-anchor="middle" x="485.75" y="-113.7" font-family="Times New Roman,serif" font-size="14.00">sigma</text>
</g>
</g>
</svg>
