<?xml version="1.0" encoding="UTF-8" standalone="no"?>
<!DOCTYPE svg PUBLIC "-//W3C//DTD SVG 1.1//EN"
 "http://www.w3.org/Graphics/SVG/1.1/DTD/svg11.dtd">
<!-- Generated by graphviz version 8.0.5 (20230430.1635)
 -->
<!-- Pages: 1 -->
<svg width="360px" height="1015px"
 viewBox="0.00 0.00 359.88 1014.51" xmlns="http://www.w3.org/2000/svg" xmlns:xlink="http://www.w3.org/1999/xlink">
<g id="graph0" class="graph" transform="scale(1.0 1.0) rotate(0.0) translate(4.0 1010.51)">
<!-- 0 -->
<g id="node1" class="node">
<title>0</title>
<ellipse fill="none" stroke="black" stroke-width="2" cx="205.63" cy="-807.51" rx="18" ry="18"/>
<text text-anchor="middle" x="205.63" y="-802.08" font-family="Times New Roman,serif" font-size="14.00">0</text>
</g>
<!-- 1 -->
<g id="node2" class="node">
<title>1</title>
<ellipse fill="none" stroke="black" stroke-width="2" cx="94.63" cy="-611.76" rx="18" ry="18"/>
<text text-anchor="middle" x="94.63" y="-606.33" font-family="Times New Roman,serif" font-size="14.00">1</text>
</g>
<!-- 0&#45;&gt;1 -->
<g id="edge1" class="edge">
<title>0&#45;&gt;1</title>
<path fill="none" stroke="black" d="M196.92,-791.31C177.79,-757.92 131.96,-677.93 108.7,-637.32"/>
<polygon fill="black" stroke="black" points="111.3,-635.83 103.3,-628.89 105.23,-639.31 111.3,-635.83"/>
<text text-anchor="middle" x="160.38" y="-704.21" font-family="Times New Roman,serif" font-size="14.00">c1</text>
</g>
<!-- 2 -->
<g id="node3" class="node">
<title>2</title>
<ellipse fill="none" stroke="black" stroke-width="2" cx="170.63" cy="-611.76" rx="18" ry="18"/>
<text text-anchor="middle" x="170.63" y="-606.33" font-family="Times New Roman,serif" font-size="14.00">2</text>
</g>
<!-- 0&#45;&gt;2 -->
<g id="edge2" class="edge">
<title>0&#45;&gt;2</title>
<path fill="none" stroke="black" d="M200.5,-789.77C192.61,-763.99 178.38,-717.51 178.38,-717.51 178.38,-717.51 174.99,-671.74 172.7,-640.71"/>
<polygon fill="black" stroke="black" points="176.14,-640.77 171.91,-631.06 169.15,-641.29 176.14,-640.77"/>
<text text-anchor="middle" x="185.75" y="-704.21" font-family="Times New Roman,serif" font-size="14.00">b1</text>
</g>
<!-- 3 -->
<g id="node4" class="node">
<title>3</title>
<ellipse fill="none" stroke="black" stroke-width="2" cx="242.63" cy="-611.76" rx="18" ry="18"/>
<text text-anchor="middle" x="242.63" y="-606.33" font-family="Times New Roman,serif" font-size="14.00">3</text>
</g>
<!-- 0&#45;&gt;3 -->
<g id="edge3" class="edge">
<title>0&#45;&gt;3</title>
<path fill="none" stroke="black" d="M208.91,-789.31C215.31,-755.78 229.53,-681.37 237.3,-640.67"/>
<polygon fill="black" stroke="black" points="240.91,-641.39 239.35,-630.91 234.04,-640.08 240.91,-641.39"/>
<text text-anchor="middle" x="232.75" y="-704.21" font-family="Times New Roman,serif" font-size="14.00">b2</text>
</g>
<!-- 4 -->
<g id="node5" class="node">
<title>4</title>
<ellipse fill="none" stroke="black" stroke-width="2" cx="315.63" cy="-611.76" rx="18" ry="18"/>
<text text-anchor="middle" x="315.63" y="-606.33" font-family="Times New Roman,serif" font-size="14.00">4</text>
</g>
<!-- 0&#45;&gt;4 -->
<g id="edge4" class="edge">
<title>0&#45;&gt;4</title>
<path fill="none" stroke="black" d="M214.26,-791.31C233.22,-757.92 278.63,-677.93 301.68,-637.32"/>
<polygon fill="black" stroke="black" points="305.14,-639.32 307.04,-628.89 299.05,-635.86 305.14,-639.32"/>
<text text-anchor="middle" x="271" y="-704.21" font-family="Times New Roman,serif" font-size="14.00">a1</text>
</g>
<!-- 5 -->
<g id="node7" class="node">
<title>5</title>
<ellipse fill="none" stroke="black" stroke-width="2" cx="21.63" cy="-416.01" rx="18" ry="18"/>
<text text-anchor="middle" x="21.63" y="-410.58" font-family="Times New Roman,serif" font-size="14.00">5</text>
</g>
<!-- 1&#45;&gt;5 -->
<g id="edge5" class="edge">
<title>1&#45;&gt;5</title>
<path fill="none" stroke="black" d="M88.53,-594.57C75.94,-561.17 46.98,-484.3 31.62,-443.53"/>
<polygon fill="black" stroke="black" points="34.56,-442.41 27.76,-434.28 28.01,-444.88 34.56,-442.41"/>
<text text-anchor="middle" x="67" y="-508.46" font-family="Times New Roman,serif" font-size="14.00">a2</text>
</g>
<!-- 6 -->
<g id="node8" class="node">
<title>6</title>
<ellipse fill="none" stroke="black" stroke-width="2" cx="94.63" cy="-416.01" rx="18" ry="18"/>
<text text-anchor="middle" x="94.63" y="-410.58" font-family="Times New Roman,serif" font-size="14.00">6</text>
</g>
<!-- 1&#45;&gt;6 -->
<g id="edge6" class="edge">
<title>1&#45;&gt;6</title>
<path fill="none" stroke="black" d="M94.63,-593.56C94.63,-560.11 94.63,-485.99 94.63,-445.23"/>
<polygon fill="black" stroke="black" points="98.13,-445.44 94.63,-435.44 91.13,-445.44 98.13,-445.44"/>
<text text-anchor="middle" x="101.75" y="-508.46" font-family="Times New Roman,serif" font-size="14.00">b2</text>
</g>
<!-- 7 -->
<g id="node9" class="node">
<title>7</title>
<ellipse fill="none" stroke="black" stroke-width="2" cx="170.63" cy="-416.01" rx="18" ry="18"/>
<text text-anchor="middle" x="170.63" y="-410.58" font-family="Times New Roman,serif" font-size="14.00">7</text>
</g>
<!-- 2&#45;&gt;7 -->
<g id="edge7" class="edge">
<title>2&#45;&gt;7</title>
<path fill="none" stroke="black" d="M170.63,-593.56C170.63,-560.11 170.63,-485.99 170.63,-445.23"/>
<polygon fill="black" stroke="black" points="174.13,-445.44 170.63,-435.44 167.13,-445.44 174.13,-445.44"/>
<text text-anchor="middle" x="177" y="-508.46" font-family="Times New Roman,serif" font-size="14.00">a1</text>
</g>
<!-- 8 -->
<g id="node10" class="node">
<title>8</title>
<ellipse fill="none" stroke="black" stroke-width="2" cx="244.63" cy="-416.01" rx="18" ry="18"/>
<text text-anchor="middle" x="244.63" y="-410.58" font-family="Times New Roman,serif" font-size="14.00">8</text>
</g>
<!-- 3&#45;&gt;8 -->
<g id="edge8" class="edge">
<title>3&#45;&gt;8</title>
<path fill="none" stroke="black" d="M242.8,-593.56C243.15,-560.11 243.92,-485.99 244.34,-445.23"/>
<polygon fill="black" stroke="black" points="247.84,-445.48 244.45,-435.44 240.84,-445.41 247.84,-445.48"/>
<text text-anchor="middle" x="251.38" y="-508.46" font-family="Times New Roman,serif" font-size="14.00">c2</text>
</g>
<!-- 9 -->
<g id="node11" class="node">
<title>9</title>
<ellipse fill="none" stroke="black" stroke-width="2" cx="317.63" cy="-416.01" rx="18" ry="18"/>
<text text-anchor="middle" x="317.63" y="-410.58" font-family="Times New Roman,serif" font-size="14.00">9</text>
</g>
<!-- 4&#45;&gt;9 -->
<g id="edge9" class="edge">
<title>4&#45;&gt;9</title>
<path fill="none" stroke="black" d="M315.8,-593.56C316.15,-560.11 316.92,-485.99 317.34,-445.23"/>
<polygon fill="black" stroke="black" points="320.84,-445.48 317.45,-435.44 313.84,-445.41 320.84,-445.48"/>
<text text-anchor="middle" x="324.75" y="-508.46" font-family="Times New Roman,serif" font-size="14.00">b1</text>
</g>
<g id="node6" class="node">
<title></title>
</g>
<!-- &#45;&gt;0 -->
<g id="edge10" class="edge">
<title>&#45;&gt;0</title>
<path fill="none" stroke="blue" d="M205.63,-970.67C205.63,-939.91 205.63,-874.34 205.63,-836.68"/>
<polygon fill="blue" stroke="blue" points="209.13,-836.96 205.63,-826.96 202.13,-836.96 209.13,-836.96"/>
</g>
<!-- 10 -->
<g id="node12" class="node">
<title>10</title>
<ellipse fill="none" stroke="black" stroke-width="2" cx="19.63" cy="-218.63" rx="19.63" ry="19.63"/>
<text text-anchor="middle" x="19.63" y="-213.21" font-family="Times New Roman,serif" font-size="14.00">10</text>
</g>
<!-- 5&#45;&gt;10 -->
<g id="edge11" class="edge">
<title>5&#45;&gt;10</title>
<path fill="none" stroke="black" d="M21.45,-397.67C21.11,-364.29 20.36,-290.76 19.93,-249.4"/>
<polygon fill="black" stroke="black" points="23.42,-249.61 19.82,-239.64 16.42,-249.68 23.42,-249.61"/>
<text text-anchor="middle" x="28.75" y="-312.71" font-family="Times New Roman,serif" font-size="14.00">b1</text>
</g>
<!-- 11 -->
<g id="node13" class="node">
<title>11</title>
<ellipse fill="none" stroke="black" stroke-width="2" cx="94.63" cy="-218.63" rx="19.63" ry="19.63"/>
<text text-anchor="middle" x="94.63" y="-213.21" font-family="Times New Roman,serif" font-size="14.00">11</text>
</g>
<!-- 6&#45;&gt;11 -->
<g id="edge12" class="edge">
<title>6&#45;&gt;11</title>
<path fill="none" stroke="black" d="M94.63,-397.67C94.63,-364.29 94.63,-290.76 94.63,-249.4"/>
<polygon fill="black" stroke="black" points="98.13,-249.64 94.63,-239.64 91.13,-249.64 98.13,-249.64"/>
<text text-anchor="middle" x="101" y="-312.71" font-family="Times New Roman,serif" font-size="14.00">a1</text>
</g>
<!-- 12 -->
<g id="node14" class="node">
<title>12</title>
<ellipse fill="none" stroke="black" stroke-width="2" cx="169.63" cy="-218.63" rx="19.63" ry="19.63"/>
<text text-anchor="middle" x="169.63" y="-213.21" font-family="Times New Roman,serif" font-size="14.00">12</text>
</g>
<!-- 7&#45;&gt;12 -->
<g id="edge13" class="edge">
<title>7&#45;&gt;12</title>
<path fill="none" stroke="black" d="M170.54,-397.67C170.37,-364.29 169.99,-290.76 169.78,-249.4"/>
<polygon fill="black" stroke="black" points="173.28,-249.63 169.72,-239.64 166.28,-249.66 173.28,-249.63"/>
<text text-anchor="middle" x="177.38" y="-312.71" font-family="Times New Roman,serif" font-size="14.00">c2</text>
</g>
<!-- 13 -->
<g id="node15" class="node">
<title>13</title>
<ellipse fill="none" stroke="black" stroke-width="2" cx="244.63" cy="-218.63" rx="19.63" ry="19.63"/>
<text text-anchor="middle" x="244.63" y="-213.21" font-family="Times New Roman,serif" font-size="14.00">13</text>
</g>
<!-- 8&#45;&gt;13 -->
<g id="edge14" class="edge">
<title>8&#45;&gt;13</title>
<path fill="none" stroke="black" d="M244.63,-397.67C244.63,-364.29 244.63,-290.76 244.63,-249.4"/>
<polygon fill="black" stroke="black" points="248.13,-249.64 244.63,-239.64 241.13,-249.64 248.13,-249.64"/>
<text text-anchor="middle" x="251" y="-312.71" font-family="Times New Roman,serif" font-size="14.00">a2</text>
</g>
<!-- 14 -->
<g id="node16" class="node">
<title>14</title>
<ellipse fill="none" stroke="black" stroke-width="2" cx="319.63" cy="-218.63" rx="19.63" ry="19.63"/>
<text text-anchor="middle" x="319.63" y="-213.21" font-family="Times New Roman,serif" font-size="14.00">14</text>
</g>
<!-- 9&#45;&gt;14 -->
<g id="edge15" class="edge">
<title>9&#45;&gt;14</title>
<path fill="none" stroke="black" d="M317.8,-397.67C318.15,-364.29 318.9,-290.76 319.32,-249.4"/>
<polygon fill="black" stroke="black" points="322.83,-249.68 319.43,-239.64 315.83,-249.61 322.83,-249.68"/>
<text text-anchor="middle" x="326.38" y="-312.71" font-family="Times New Roman,serif" font-size="14.00">c1</text>
</g>
<!-- 15 -->
<g id="node17" class="node">
<title>15</title>
<ellipse fill="none" stroke="black" stroke-width="2" cx="19.63" cy="-19.63" rx="19.63" ry="19.63"/>
<text text-anchor="middle" x="19.63" y="-14.2" font-family="Times New Roman,serif" font-size="14.00">15</text>
</g>
<!-- 10&#45;&gt;15 -->
<g id="edge16" class="edge">
<title>10&#45;&gt;15</title>
<path fill="none" stroke="black" d="M19.16,-198.85C18.5,-172.31 17.38,-127 17.38,-127 17.38,-127 17.38,-111.25 17.38,-111.25 17.38,-111.25 18.24,-76.57 18.9,-50.11"/>
<polygon fill="black" stroke="black" points="22.41,-50.49 19.16,-40.41 15.41,-50.32 22.41,-50.49"/>
<text text-anchor="middle" x="33.75" y="-113.7" font-family="Times New Roman,serif" font-size="14.00">sigma</text>
</g>
<!-- 16 -->
<g id="node18" class="node">
<title>16</title>
<ellipse fill="none" stroke="black" stroke-width="2" cx="94.63" cy="-19.63" rx="19.63" ry="19.63"/>
<text text-anchor="middle" x="94.63" y="-14.2" font-family="Times New Roman,serif" font-size="14.00">16</text>
</g>
<!-- 11&#45;&gt;16 -->
<g id="edge17" class="edge">
<title>11&#45;&gt;16</title>
<path fill="none" stroke="black" d="M94.16,-198.85C93.5,-172.31 92.38,-127 92.38,-127 92.38,-127 92.38,-111.25 92.38,-111.25 92.38,-111.25 93.24,-76.57 93.9,-50.11"/>
<polygon fill="black" stroke="black" points="97.41,-50.49 94.16,-40.41 90.41,-50.32 97.41,-50.49"/>
<text text-anchor="middle" x="108.75" y="-113.7" font-family="Times New Roman,serif" font-size="14.00">sigma</text>
</g>
<!-- 17 -->
<g id="node19" class="node">
<title>17</title>
<ellipse fill="none" stroke="black" stroke-width="2" cx="169.63" cy="-19.63" rx="19.63" ry="19.63"/>
<text text-anchor="middle" x="169.63" y="-14.2" font-family="Times New Roman,serif" font-size="14.00">17</text>
</g>
<!-- 12&#45;&gt;17 -->
<g id="edge18" class="edge">
<title>12&#45;&gt;17</title>
<path fill="none" stroke="black" d="M169.16,-198.85C168.5,-172.31 167.38,-127 167.38,-127 167.38,-127 167.38,-111.25 167.38,-111.25 167.38,-111.25 168.24,-76.57 168.9,-50.11"/>
<polygon fill="black" stroke="black" points="172.41,-50.49 169.16,-40.41 165.41,-50.32 172.41,-50.49"/>
<text text-anchor="middle" x="183.75" y="-113.7" font-family="Times New Roman,serif" font-size="14.00">sigma</text>
</g>
<!-- 18 -->
<g id="node20" class="node">
<title>18</title>
<ellipse fill="none" stroke="black" stroke-width="2" cx="244.63" cy="-19.63" rx="19.63" ry="19.63"/>
<text text-anchor="middle" x="244.63" y="-14.2" font-family="Times New Roman,serif" font-size="14.00">18</text>
</g>
<!-- 13&#45;&gt;18 -->
<g id="edge19" class="edge">
<title>13&#45;&gt;18</title>
<path fill="none" stroke="black" stroke-dasharray="1,5" d="M244.16,-198.85C243.5,-172.31 242.38,-127 242.38,-127 242.38,-127 242.38,-111.25 242.38,-111.25 242.38,-111.25 243.24,-76.57 243.9,-50.11"/>
<polygon fill="black" stroke="black" points="247.41,-50.49 244.16,-40.41 240.41,-50.32 247.41,-50.49"/>
<text text-anchor="middle" x="258.75" y="-113.7" font-family="Times New Roman,serif" font-size="14.00">sigma</text>
</g>
<!-- 19 -->
<g id="node21" class="node">
<title>19</title>
<ellipse fill="none" stroke="black" stroke-width="2" cx="319.63" cy="-19.63" rx="19.63" ry="19.63"/>
<text text-anchor="middle" x="319.63" y="-14.2" font-family="Times New Roman,serif" font-size="14.00">19</text>
</g>
<!-- 14&#45;&gt;19 -->
<g id="edge20" class="edge">
<title>14&#45;&gt;19</title>
<path fill="none" stroke="black" stroke-dasharray="1,5" d="M319.63,-198.74C319.63,-164.48 319.63,-91.85 319.63,-50.7"/>
<polygon fill="black" stroke="black" points="323.13,-50.75 319.63,-40.75 316.13,-50.75 323.13,-50.75"/>
<text text-anchor="middle" x="335.75" y="-113.7" font-family="Times New Roman,serif" font-size="14.00">sigma</text>
</g>
</g>
</svg>
