<?xml version="1.0" encoding="UTF-8" standalone="no"?>
<!DOCTYPE svg PUBLIC "-//W3C//DTD SVG 1.1//EN"
 "http://www.w3.org/Graphics/SVG/1.1/DTD/svg11.dtd">
<!-- Generated by graphviz version 8.0.5 (20230430.1635)
 -->
<!-- Pages: 1 -->
<svg width="172px" height="812px"
 viewBox="0.00 0.00 172.00 812.25" xmlns="http://www.w3.org/2000/svg" xmlns:xlink="http://www.w3.org/1999/xlink">
<g id="graph0" class="graph" transform="scale(1.0 1.0) rotate(0.0) translate(4.0 808.25)">
<!-- 1 -->
<g id="node1" class="node">
<title>1</title>
<ellipse fill="none" stroke="black" stroke-width="2" cx="54" cy="-605.25" rx="18" ry="18"/>
<text text-anchor="middle" x="54" y="-599.83" font-family="Times New Roman,serif" font-size="14.00">1</text>
</g>
<!-- 3 -->
<g id="node2" class="node">
<title>3</title>
<ellipse fill="none" stroke="black" stroke-width="2" cx="18" cy="-409.5" rx="18" ry="18"/>
<text text-anchor="middle" x="18" y="-404.07" font-family="Times New Roman,serif" font-size="14.00">3</text>
</g>
<!-- 1&#45;&gt;3 -->
<g id="edge1" class="edge">
<title>1&#45;&gt;3</title>
<path fill="none" stroke="black" d="M46.98,-588.34C35.69,-562.74 14.75,-515.25 14.75,-515.25 14.75,-515.25 14.75,-499.5 14.75,-499.5 14.75,-499.5 16.02,-464.61 16.98,-438.52"/>
<polygon fill="black" stroke="black" points="20.51,-438.78 17.37,-428.66 13.51,-438.53 20.51,-438.78"/>
<text text-anchor="middle" x="29.62" y="-501.95" font-family="Times New Roman,serif" font-size="14.00">alpha</text>
</g>
<!-- 2 -->
<g id="node3" class="node">
<title>2</title>
<ellipse fill="none" stroke="black" stroke-width="2" cx="90" cy="-409.5" rx="18" ry="18"/>
<text text-anchor="middle" x="90" y="-404.07" font-family="Times New Roman,serif" font-size="14.00">2</text>
</g>
<!-- 1&#45;&gt;2 -->
<g id="edge2" class="edge">
<title>1&#45;&gt;2</title>
<path fill="none" stroke="black" d="M57.19,-587.06C63.43,-553.52 77.25,-479.11 84.81,-438.41"/>
<polygon fill="black" stroke="black" points="88.43,-439.13 86.81,-428.66 81.54,-437.85 88.43,-439.13"/>
<text text-anchor="middle" x="84.62" y="-501.95" font-family="Times New Roman,serif" font-size="14.00">beta</text>
</g>
<!-- 5 -->
<g id="node5" class="node">
<title>5</title>
<ellipse fill="none" stroke="black" stroke-width="2" cx="46" cy="-213.75" rx="18" ry="18"/>
<text text-anchor="middle" x="46" y="-208.32" font-family="Times New Roman,serif" font-size="14.00">5</text>
</g>
<!-- 3&#45;&gt;5 -->
<g id="edge3" class="edge">
<title>3&#45;&gt;5</title>
<path fill="none" stroke="black" d="M17.18,-391.34C15.95,-365.48 13.75,-319.5 13.75,-319.5 13.75,-319.5 13.75,-303.75 13.75,-303.75 13.75,-303.75 26.9,-267.46 36.41,-241.22"/>
<polygon fill="black" stroke="black" points="39.97,-242.67 40.08,-232.07 33.39,-240.28 39.97,-242.67"/>
<text text-anchor="middle" x="25.62" y="-306.2" font-family="Times New Roman,serif" font-size="14.00">beta</text>
</g>
<!-- 2&#45;&gt;5 -->
<g id="edge4" class="edge">
<title>2&#45;&gt;5</title>
<path fill="none" stroke="black" stroke-dasharray="1,5" d="M86.17,-391.64C78.57,-358.15 61.49,-282.95 52.24,-242.21"/>
<polygon fill="black" stroke="black" points="55.48,-241.68 49.85,-232.7 48.65,-243.23 55.48,-241.68"/>
<text text-anchor="middle" x="80.62" y="-306.2" font-family="Times New Roman,serif" font-size="14.00">beta</text>
</g>
<!-- 4 -->
<g id="node6" class="node">
<title>4</title>
<ellipse fill="none" stroke="black" stroke-width="2" cx="146" cy="-213.75" rx="18" ry="18"/>
<text text-anchor="middle" x="146" y="-208.32" font-family="Times New Roman,serif" font-size="14.00">4</text>
</g>
<!-- 2&#45;&gt;4 -->
<g id="edge5" class="edge">
<title>2&#45;&gt;4</title>
<path fill="none" stroke="black" d="M94.77,-391.98C104.42,-358.61 126.32,-282.85 138.12,-242.03"/>
<polygon fill="black" stroke="black" points="141.74,-243.08 141.16,-232.5 135.02,-241.14 141.74,-243.08"/>
<text text-anchor="middle" x="138.88" y="-306.2" font-family="Times New Roman,serif" font-size="14.00">gamma</text>
</g>
<g id="node4" class="node">
<title></title>
</g>
<!-- &#45;&gt;1 -->
<g id="edge6" class="edge">
<title>&#45;&gt;1</title>
<path fill="none" stroke="blue" d="M54,-768.41C54,-737.65 54,-672.08 54,-634.42"/>
<polygon fill="blue" stroke="blue" points="57.5,-634.7 54,-624.7 50.5,-634.7 57.5,-634.7"/>
</g>
<!-- 6 -->
<g id="node7" class="node">
<title>6</title>
<ellipse fill="none" stroke="black" stroke-width="2" cx="46" cy="-18" rx="18" ry="18"/>
<text text-anchor="middle" x="46" y="-12.57" font-family="Times New Roman,serif" font-size="14.00">6</text>
</g>
<!-- 5&#45;&gt;6 -->
<g id="edge7" class="edge">
<title>5&#45;&gt;6</title>
<path fill="none" stroke="black" stroke-dasharray="1,5" d="M46,-195.56C46,-162.1 46,-87.98 46,-47.22"/>
<polygon fill="black" stroke="black" points="49.5,-47.43 46,-37.43 42.5,-47.43 49.5,-47.43"/>
<text text-anchor="middle" x="65.88" y="-110.45" font-family="Times New Roman,serif" font-size="14.00">gamma</text>
</g>
</g>
</svg>
