<?xml version="1.0" encoding="UTF-8" standalone="no"?>
<!DOCTYPE svg PUBLIC "-//W3C//DTD SVG 1.1//EN"
 "http://www.w3.org/Graphics/SVG/1.1/DTD/svg11.dtd">
<!-- Generated by graphviz version 8.0.5 (20230430.1635)
 -->
<!-- Pages: 1 -->
<svg width="276px" height="812px"
 viewBox="0.00 0.00 276.25 812.25" xmlns="http://www.w3.org/2000/svg" xmlns:xlink="http://www.w3.org/1999/xlink">
<g id="graph0" class="graph" transform="scale(1.0 1.0) rotate(0.0) translate(4.0 808.25)">
<!-- 0 -->
<g id="node1" class="node">
<title>0</title>
<ellipse fill="none" stroke="black" stroke-width="2" cx="92" cy="-605.25" rx="18" ry="18"/>
<text text-anchor="middle" x="92" y="-599.83" font-family="Times New Roman,serif" font-size="14.00">0</text>
</g>
<!-- 2 -->
<g id="node2" class="node">
<title>2</title>
<ellipse fill="none" stroke="black" stroke-width="2" cx="19" cy="-409.5" rx="18" ry="18"/>
<text text-anchor="middle" x="19" y="-404.07" font-family="Times New Roman,serif" font-size="14.00">2</text>
</g>
<!-- 0&#45;&gt;2 -->
<g id="edge1" class="edge">
<title>0&#45;&gt;2</title>
<path fill="none" stroke="black" stroke-dasharray="1,5" d="M84.63,-588.34C72.76,-562.74 50.75,-515.25 50.75,-515.25 50.75,-515.25 36.46,-468.1 27.05,-437.07"/>
<polygon fill="black" stroke="black" points="30.21,-436.42 23.96,-427.87 23.51,-438.45 30.21,-436.42"/>
<text text-anchor="middle" x="67.12" y="-501.95" font-family="Times New Roman,serif" font-size="14.00">sigma</text>
</g>
<!-- 1 -->
<g id="node3" class="node">
<title>1</title>
<ellipse fill="none" stroke="black" stroke-width="2" cx="91" cy="-409.5" rx="18" ry="18"/>
<text text-anchor="middle" x="91" y="-404.07" font-family="Times New Roman,serif" font-size="14.00">1</text>
</g>
<!-- 0&#45;&gt;1 -->
<g id="edge2" class="edge">
<title>0&#45;&gt;1</title>
<path fill="none" stroke="black" d="M91.91,-587.06C91.74,-553.6 91.36,-479.48 91.15,-438.72"/>
<polygon fill="black" stroke="black" points="94.64,-438.92 91.09,-428.93 87.64,-438.95 94.64,-438.92"/>
<text text-anchor="middle" x="99.12" y="-501.95" font-family="Times New Roman,serif" font-size="14.00">b1</text>
</g>
<!-- 3 -->
<g id="node4" class="node">
<title>3</title>
<ellipse fill="none" stroke="black" stroke-width="2" cx="163" cy="-409.5" rx="18" ry="18"/>
<text text-anchor="middle" x="163" y="-404.07" font-family="Times New Roman,serif" font-size="14.00">3</text>
</g>
<!-- 0&#45;&gt;3 -->
<g id="edge3" class="edge">
<title>0&#45;&gt;3</title>
<path fill="none" stroke="black" d="M97.93,-588.06C110.17,-554.66 138.34,-477.79 153.28,-437.02"/>
<polygon fill="black" stroke="black" points="156.88,-438.37 157.04,-427.78 150.31,-435.96 156.88,-438.37"/>
<text text-anchor="middle" x="136.38" y="-501.95" font-family="Times New Roman,serif" font-size="14.00">a1</text>
</g>
<!-- 5 -->
<g id="node6" class="node">
<title>5</title>
<ellipse fill="none" stroke="black" stroke-width="2" cx="18" cy="-213.75" rx="18" ry="18"/>
<text text-anchor="middle" x="18" y="-208.32" font-family="Times New Roman,serif" font-size="14.00">5</text>
</g>
<!-- 1&#45;&gt;5 -->
<g id="edge4" class="edge">
<title>1&#45;&gt;5</title>
<path fill="none" stroke="black" d="M83.63,-392.59C71.76,-366.99 49.75,-319.5 49.75,-319.5 49.75,-319.5 35.46,-272.35 26.05,-241.32"/>
<polygon fill="black" stroke="black" points="29.21,-240.67 22.96,-232.12 22.51,-242.7 29.21,-240.67"/>
<text text-anchor="middle" x="66.12" y="-306.2" font-family="Times New Roman,serif" font-size="14.00">sigma</text>
</g>
<!-- 4 -->
<g id="node7" class="node">
<title>4</title>
<ellipse fill="none" stroke="black" stroke-width="2" cx="91" cy="-213.75" rx="18" ry="18"/>
<text text-anchor="middle" x="91" y="-208.32" font-family="Times New Roman,serif" font-size="14.00">4</text>
</g>
<!-- 1&#45;&gt;4 -->
<g id="edge5" class="edge">
<title>1&#45;&gt;4</title>
<path fill="none" stroke="black" d="M91,-391.31C91,-357.85 91,-283.73 91,-242.97"/>
<polygon fill="black" stroke="black" points="94.5,-243.18 91,-233.18 87.5,-243.18 94.5,-243.18"/>
<text text-anchor="middle" x="97.38" y="-306.2" font-family="Times New Roman,serif" font-size="14.00">a2</text>
</g>
<!-- 6 -->
<g id="node8" class="node">
<title>6</title>
<ellipse fill="none" stroke="black" stroke-width="2" cx="163" cy="-213.75" rx="18" ry="18"/>
<text text-anchor="middle" x="163" y="-208.32" font-family="Times New Roman,serif" font-size="14.00">6</text>
</g>
<!-- 3&#45;&gt;6 -->
<g id="edge6" class="edge">
<title>3&#45;&gt;6</title>
<path fill="none" stroke="black" d="M162.18,-391.34C160.95,-365.48 158.75,-319.5 158.75,-319.5 158.75,-319.5 158.75,-303.75 158.75,-303.75 158.75,-303.75 160.42,-268.86 161.66,-242.77"/>
<polygon fill="black" stroke="black" points="165.2,-243.07 162.18,-232.91 158.21,-242.73 165.2,-243.07"/>
<text text-anchor="middle" x="175.12" y="-306.2" font-family="Times New Roman,serif" font-size="14.00">sigma</text>
</g>
<!-- 7 -->
<g id="node9" class="node">
<title>7</title>
<ellipse fill="none" stroke="black" stroke-width="2" cx="236" cy="-213.75" rx="18" ry="18"/>
<text text-anchor="middle" x="236" y="-208.32" font-family="Times New Roman,serif" font-size="14.00">7</text>
</g>
<!-- 3&#45;&gt;7 -->
<g id="edge7" class="edge">
<title>3&#45;&gt;7</title>
<path fill="none" stroke="black" d="M169.1,-392.31C181.69,-358.91 210.65,-282.04 226.01,-241.27"/>
<polygon fill="black" stroke="black" points="229.62,-242.62 229.87,-232.03 223.07,-240.15 229.62,-242.62"/>
<text text-anchor="middle" x="209.12" y="-306.2" font-family="Times New Roman,serif" font-size="14.00">b2</text>
</g>
<g id="node5" class="node">
<title></title>
</g>
<!-- &#45;&gt;0 -->
<g id="edge8" class="edge">
<title>&#45;&gt;0</title>
<path fill="none" stroke="blue" d="M92,-768.41C92,-737.65 92,-672.08 92,-634.42"/>
<polygon fill="blue" stroke="blue" points="95.5,-634.7 92,-624.7 88.5,-634.7 95.5,-634.7"/>
</g>
<!-- 8 -->
<g id="node10" class="node">
<title>8</title>
<ellipse fill="none" stroke="black" stroke-width="2" cx="91" cy="-18" rx="18" ry="18"/>
<text text-anchor="middle" x="91" y="-12.57" font-family="Times New Roman,serif" font-size="14.00">8</text>
</g>
<!-- 4&#45;&gt;8 -->
<g id="edge9" class="edge">
<title>4&#45;&gt;8</title>
<path fill="none" stroke="black" stroke-dasharray="1,5" d="M91,-195.56C91,-162.1 91,-87.98 91,-47.22"/>
<polygon fill="black" stroke="black" points="94.5,-47.43 91,-37.43 87.5,-47.43 94.5,-47.43"/>
<text text-anchor="middle" x="107.12" y="-110.45" font-family="Times New Roman,serif" font-size="14.00">sigma</text>
</g>
<!-- 9 -->
<g id="node11" class="node">
<title>9</title>
<ellipse fill="none" stroke="black" stroke-width="2" cx="236" cy="-18" rx="18" ry="18"/>
<text text-anchor="middle" x="236" y="-12.57" font-family="Times New Roman,serif" font-size="14.00">9</text>
</g>
<!-- 7&#45;&gt;9 -->
<g id="edge10" class="edge">
<title>7&#45;&gt;9</title>
<path fill="none" stroke="black" stroke-dasharray="1,5" d="M236,-195.56C236,-162.1 236,-87.98 236,-47.22"/>
<polygon fill="black" stroke="black" points="239.5,-47.43 236,-37.43 232.5,-47.43 239.5,-47.43"/>
<text text-anchor="middle" x="252.12" y="-110.45" font-family="Times New Roman,serif" font-size="14.00">sigma</text>
</g>
</g>
</svg>
