<?xml version="1.0" encoding="UTF-8" standalone="no"?>
<!DOCTYPE svg PUBLIC "-//W3C//DTD SVG 1.1//EN"
 "http://www.w3.org/Graphics/SVG/1.1/DTD/svg11.dtd">
<!-- Generated by graphviz version 8.0.5 (20230430.1635)
 -->
<!-- Pages: 1 -->
<svg width="388px" height="812px"
 viewBox="0.00 0.00 387.75 812.25" xmlns="http://www.w3.org/2000/svg" xmlns:xlink="http://www.w3.org/1999/xlink">
<g id="graph0" class="graph" transform="scale(1.0 1.0) rotate(0.0) translate(4.0 808.25)">
<!-- 0 -->
<g id="node1" class="node">
<title>0</title>
<ellipse fill="none" stroke="black" stroke-width="2" cx="147" cy="-605.25" rx="18" ry="18"/>
<text text-anchor="middle" x="147" y="-599.83" font-family="Times New Roman,serif" font-size="14.00">0</text>
</g>
<!-- 1 -->
<g id="node2" class="node">
<title>1</title>
<ellipse fill="none" stroke="black" stroke-width="2" cx="18" cy="-409.5" rx="18" ry="18"/>
<text text-anchor="middle" x="18" y="-404.07" font-family="Times New Roman,serif" font-size="14.00">1</text>
</g>
<!-- 0&#45;&gt;1 -->
<g id="edge1" class="edge">
<title>0&#45;&gt;1</title>
<path fill="none" stroke="black" d="M133.48,-592.98C104.76,-569.03 40.25,-515.25 40.25,-515.25 40.25,-515.25 30.43,-469 23.83,-437.96"/>
<polygon fill="black" stroke="black" points="27.08,-437.38 21.57,-428.33 20.23,-438.84 27.08,-437.38"/>
<text text-anchor="middle" x="60.88" y="-501.95" font-family="Times New Roman,serif" font-size="14.00">gamma</text>
</g>
<!-- 2 -->
<g id="node3" class="node">
<title>2</title>
<ellipse fill="none" stroke="black" stroke-width="2" cx="130" cy="-213.75" rx="18" ry="18"/>
<text text-anchor="middle" x="130" y="-208.32" font-family="Times New Roman,serif" font-size="14.00">2</text>
</g>
<!-- 0&#45;&gt;2 -->
<g id="edge2" class="edge">
<title>0&#45;&gt;2</title>
<path fill="none" stroke="black" d="M146.25,-587.01C143.58,-525.81 134.53,-318.63 131.23,-242.83"/>
<polygon fill="black" stroke="black" points="134.7,-243.07 130.76,-233.23 127.7,-243.37 134.7,-243.07"/>
<text text-anchor="middle" x="148.62" y="-404.07" font-family="Times New Roman,serif" font-size="14.00">mu</text>
</g>
<!-- 3 -->
<g id="node4" class="node">
<title>3</title>
<ellipse fill="none" stroke="black" stroke-width="2" cx="205" cy="-409.5" rx="18" ry="18"/>
<text text-anchor="middle" x="205" y="-404.07" font-family="Times New Roman,serif" font-size="14.00">3</text>
</g>
<!-- 0&#45;&gt;3 -->
<g id="edge3" class="edge">
<title>0&#45;&gt;3</title>
<path fill="none" stroke="black" d="M151.95,-587.73C161.94,-554.36 184.61,-478.6 196.83,-437.78"/>
<polygon fill="black" stroke="black" points="200.47,-438.84 199.99,-428.25 193.76,-436.83 200.47,-438.84"/>
<text text-anchor="middle" x="189.62" y="-501.95" font-family="Times New Roman,serif" font-size="14.00">beta</text>
</g>
<!-- 4 -->
<g id="node5" class="node">
<title>4</title>
<ellipse fill="none" stroke="black" stroke-width="2" cx="328" cy="-409.5" rx="18" ry="18"/>
<text text-anchor="middle" x="328" y="-404.07" font-family="Times New Roman,serif" font-size="14.00">4</text>
</g>
<!-- 0&#45;&gt;4 -->
<g id="edge4" class="edge">
<title>0&#45;&gt;4</title>
<path fill="none" stroke="black" d="M158.88,-591.54C189.5,-558.75 271.38,-471.11 308.83,-431.02"/>
<polygon fill="black" stroke="black" points="311.05,-433.7 315.32,-424.01 305.93,-428.93 311.05,-433.7"/>
<text text-anchor="middle" x="257.62" y="-501.95" font-family="Times New Roman,serif" font-size="14.00">alpha</text>
</g>
<!-- 5 -->
<g id="node7" class="node">
<title>5</title>
<ellipse fill="none" stroke="black" stroke-width="2" cx="130" cy="-18" rx="18" ry="18"/>
<text text-anchor="middle" x="130" y="-12.57" font-family="Times New Roman,serif" font-size="14.00">5</text>
</g>
<!-- 2&#45;&gt;5 -->
<g id="edge5" class="edge">
<title>2&#45;&gt;5</title>
<path fill="none" stroke="black" d="M130,-195.56C130,-162.1 130,-87.98 130,-47.22"/>
<polygon fill="black" stroke="black" points="133.5,-47.43 130,-37.43 126.5,-47.43 133.5,-47.43"/>
<text text-anchor="middle" x="149.88" y="-110.45" font-family="Times New Roman,serif" font-size="14.00">gamma</text>
</g>
<!-- 3&#45;&gt;2 -->
<g id="edge7" class="edge">
<title>3&#45;&gt;2</title>
<path fill="none" stroke="black" d="M198.73,-392.31C185.8,-358.91 156.05,-282.04 140.27,-241.27"/>
<polygon fill="black" stroke="black" points="143.17,-240.09 136.3,-232.03 136.65,-242.62 143.17,-240.09"/>
<text text-anchor="middle" x="181.62" y="-306.2" font-family="Times New Roman,serif" font-size="14.00">beta</text>
</g>
<!-- 7 -->
<g id="node8" class="node">
<title>7</title>
<ellipse fill="none" stroke="black" stroke-width="2" cx="342" cy="-213.75" rx="18" ry="18"/>
<text text-anchor="middle" x="342" y="-208.32" font-family="Times New Roman,serif" font-size="14.00">7</text>
</g>
<!-- 3&#45;&gt;7 -->
<g id="edge6" class="edge">
<title>3&#45;&gt;7</title>
<path fill="none" stroke="black" stroke-dasharray="1,5" d="M215.07,-394.25C238.53,-361.08 296.97,-278.44 325.63,-237.91"/>
<polygon fill="black" stroke="black" points="329,-240.2 331.91,-230.02 323.28,-236.16 329,-240.2"/>
<text text-anchor="middle" x="296.88" y="-306.2" font-family="Times New Roman,serif" font-size="14.00">gamma</text>
</g>
<!-- 6 -->
<g id="node9" class="node">
<title>6</title>
<ellipse fill="none" stroke="black" stroke-width="2" cx="232" cy="-213.75" rx="18" ry="18"/>
<text text-anchor="middle" x="232" y="-208.32" font-family="Times New Roman,serif" font-size="14.00">6</text>
</g>
<!-- 3&#45;&gt;6 -->
<g id="edge8" class="edge">
<title>3&#45;&gt;6</title>
<path fill="none" stroke="black" d="M207.4,-391.31C212.07,-357.77 222.44,-283.36 228.11,-242.66"/>
<polygon fill="black" stroke="black" points="231.7,-243.29 229.61,-232.91 224.76,-242.33 231.7,-243.29"/>
<text text-anchor="middle" x="233.12" y="-306.2" font-family="Times New Roman,serif" font-size="14.00">delta</text>
</g>
<!-- 4&#45;&gt;7 -->
<g id="edge9" class="edge">
<title>4&#45;&gt;7</title>
<path fill="none" stroke="black" stroke-dasharray="1,5" d="M330.31,-391.34C333.8,-365.48 340,-319.5 340,-319.5 340,-319.5 340.87,-273.73 341.47,-242.7"/>
<polygon fill="black" stroke="black" points="344.98,-243.11 341.67,-233.05 337.98,-242.98 344.98,-243.11"/>
<text text-anchor="middle" x="359.88" y="-306.2" font-family="Times New Roman,serif" font-size="14.00">gamma</text>
</g>
<g id="node6" class="node">
<title></title>
</g>
<!-- &#45;&gt;0 -->
<g id="edge10" class="edge">
<title>&#45;&gt;0</title>
<path fill="none" stroke="blue" d="M147,-768.41C147,-737.65 147,-672.08 147,-634.42"/>
<polygon fill="blue" stroke="blue" points="150.5,-634.7 147,-624.7 143.5,-634.7 150.5,-634.7"/>
</g>
<!-- 8 -->
<g id="node10" class="node">
<title>8</title>
<ellipse fill="none" stroke="black" stroke-width="2" cx="232" cy="-18" rx="18" ry="18"/>
<text text-anchor="middle" x="232" y="-12.57" font-family="Times New Roman,serif" font-size="14.00">8</text>
</g>
<!-- 6&#45;&gt;8 -->
<g id="edge11" class="edge">
<title>6&#45;&gt;8</title>
<path fill="none" stroke="black" d="M232,-195.56C232,-162.1 232,-87.98 232,-47.22"/>
<polygon fill="black" stroke="black" points="235.5,-47.43 232,-37.43 228.5,-47.43 235.5,-47.43"/>
<text text-anchor="middle" x="251.88" y="-110.45" font-family="Times New Roman,serif" font-size="14.00">gamma</text>
</g>
</g>
</svg>
