<?xml version="1.0" encoding="UTF-8" standalone="no"?>
<!DOCTYPE svg PUBLIC "-//W3C//DTD SVG 1.1//EN"
 "http://www.w3.org/Graphics/SVG/1.1/DTD/svg11.dtd">
<!-- Generated by graphviz version 8.0.5 (20230430.1635)
 -->
<!-- Pages: 1 -->
<svg width="978px" height="620px"
 viewBox="0.00 0.00 977.88 619.75" xmlns="http://www.w3.org/2000/svg" xmlns:xlink="http://www.w3.org/1999/xlink">
<g id="graph0" class="graph" transform="scale(1.0 1.0) rotate(0.0) translate(4.0 615.75)">
<!-- 0 -->
<g id="node1" class="node">
<title>0</title>
<ellipse fill="none" stroke="black" stroke-width="2" cx="445" cy="-412.75" rx="18" ry="18"/>
<text text-anchor="middle" x="445" y="-407.33" font-family="Times New Roman,serif" font-size="14.00">0</text>
</g>
<!-- 1 -->
<g id="node2" class="node">
<title>1</title>
<ellipse fill="none" stroke="black" stroke-width="2" cx="140" cy="-217" rx="18" ry="18"/>
<text text-anchor="middle" x="140" y="-211.58" font-family="Times New Roman,serif" font-size="14.00">1</text>
</g>
<!-- 0&#45;&gt;1 -->
<g id="edge1" class="edge">
<title>0&#45;&gt;1</title>
<path fill="none" stroke="black" d="M429.88,-402.15C380.57,-370.83 224.23,-271.51 163.99,-233.24"/>
<polygon fill="black" stroke="black" points="166.17,-229.85 155.86,-227.44 162.42,-235.76 166.17,-229.85"/>
<text text-anchor="middle" x="308.38" y="-309.45" font-family="Times New Roman,serif" font-size="14.00">a1</text>
</g>
<!-- 2 -->
<g id="node3" class="node">
<title>2</title>
<ellipse fill="none" stroke="black" stroke-width="2" cx="384" cy="-217" rx="18" ry="18"/>
<text text-anchor="middle" x="384" y="-211.58" font-family="Times New Roman,serif" font-size="14.00">2</text>
</g>
<!-- 0&#45;&gt;2 -->
<g id="edge2" class="edge">
<title>0&#45;&gt;2</title>
<path fill="none" stroke="black" d="M439.8,-395.24C429.24,-361.7 405.22,-285.4 392.41,-244.71"/>
<polygon fill="black" stroke="black" points="395.53,-243.97 389.19,-235.48 388.85,-246.07 395.53,-243.97"/>
<text text-anchor="middle" x="423.38" y="-309.45" font-family="Times New Roman,serif" font-size="14.00">a2</text>
</g>
<!-- 3 -->
<g id="node4" class="node">
<title>3</title>
<ellipse fill="none" stroke="black" stroke-width="2" cx="506" cy="-217" rx="18" ry="18"/>
<text text-anchor="middle" x="506" y="-211.58" font-family="Times New Roman,serif" font-size="14.00">3</text>
</g>
<!-- 0&#45;&gt;3 -->
<g id="edge3" class="edge">
<title>0&#45;&gt;3</title>
<path fill="none" stroke="black" d="M450.2,-395.24C460.76,-361.7 484.78,-285.4 497.59,-244.71"/>
<polygon fill="black" stroke="black" points="501.15,-246.07 500.81,-235.48 494.47,-243.97 501.15,-246.07"/>
<text text-anchor="middle" x="484.38" y="-309.45" font-family="Times New Roman,serif" font-size="14.00">a3</text>
</g>
<!-- 4 -->
<g id="node5" class="node">
<title>4</title>
<ellipse fill="none" stroke="black" stroke-width="2" cx="756" cy="-217" rx="18" ry="18"/>
<text text-anchor="middle" x="756" y="-211.58" font-family="Times New Roman,serif" font-size="14.00">4</text>
</g>
<!-- 0&#45;&gt;4 -->
<g id="edge4" class="edge">
<title>0&#45;&gt;4</title>
<path fill="none" stroke="black" d="M460,-402.41C509.87,-371.34 670.42,-271.32 731.82,-233.07"/>
<polygon fill="black" stroke="black" points="733.15,-235.74 739.79,-227.48 729.45,-229.8 733.15,-235.74"/>
<text text-anchor="middle" x="616.38" y="-309.45" font-family="Times New Roman,serif" font-size="14.00">a4</text>
</g>
<!-- 5 -->
<g id="node7" class="node">
<title>5</title>
<ellipse fill="none" stroke="black" stroke-width="2" cx="18" cy="-19.63" rx="18" ry="18"/>
<text text-anchor="middle" x="18" y="-14.2" font-family="Times New Roman,serif" font-size="14.00">5</text>
</g>
<!-- 1&#45;&gt;5 -->
<g id="edge5" class="edge">
<title>1&#45;&gt;5</title>
<path fill="none" stroke="black" d="M130.83,-201.32C109.94,-167.87 58.66,-85.74 33.05,-44.74"/>
<polygon fill="black" stroke="black" points="35.54,-43.11 27.28,-36.48 29.6,-46.82 35.54,-43.11"/>
<text text-anchor="middle" x="90.12" y="-113.7" font-family="Times New Roman,serif" font-size="14.00">b1</text>
</g>
<!-- 6 -->
<g id="node8" class="node">
<title>6</title>
<ellipse fill="none" stroke="black" stroke-width="2" cx="140" cy="-19.63" rx="18" ry="18"/>
<text text-anchor="middle" x="140" y="-14.2" font-family="Times New Roman,serif" font-size="14.00">6</text>
</g>
<!-- 1&#45;&gt;6 -->
<g id="edge6" class="edge">
<title>1&#45;&gt;6</title>
<path fill="none" stroke="black" d="M140,-198.67C140,-164.85 140,-89.81 140,-48.78"/>
<polygon fill="black" stroke="black" points="143.5,-48.93 140,-38.93 136.5,-48.93 143.5,-48.93"/>
<text text-anchor="middle" x="147.12" y="-113.7" font-family="Times New Roman,serif" font-size="14.00">b2</text>
</g>
<!-- 7 -->
<g id="node9" class="node">
<title>7</title>
<ellipse fill="none" stroke="black" stroke-width="2" cx="262" cy="-19.63" rx="18" ry="18"/>
<text text-anchor="middle" x="262" y="-14.2" font-family="Times New Roman,serif" font-size="14.00">7</text>
</g>
<!-- 2&#45;&gt;7 -->
<g id="edge7" class="edge">
<title>2&#45;&gt;7</title>
<path fill="none" stroke="black" d="M374.83,-201.32C353.94,-167.87 302.66,-85.74 277.05,-44.74"/>
<polygon fill="black" stroke="black" points="279.54,-43.11 271.28,-36.48 273.6,-46.82 279.54,-43.11"/>
<text text-anchor="middle" x="334.12" y="-113.7" font-family="Times New Roman,serif" font-size="14.00">b2</text>
</g>
<!-- 8 -->
<g id="node10" class="node">
<title>8</title>
<ellipse fill="none" stroke="black" stroke-width="2" cx="384" cy="-19.63" rx="18" ry="18"/>
<text text-anchor="middle" x="384" y="-14.2" font-family="Times New Roman,serif" font-size="14.00">8</text>
</g>
<!-- 2&#45;&gt;8 -->
<g id="edge8" class="edge">
<title>2&#45;&gt;8</title>
<path fill="none" stroke="black" d="M384,-198.67C384,-164.85 384,-89.81 384,-48.78"/>
<polygon fill="black" stroke="black" points="387.5,-48.93 384,-38.93 380.5,-48.93 387.5,-48.93"/>
<text text-anchor="middle" x="391.12" y="-113.7" font-family="Times New Roman,serif" font-size="14.00">b3</text>
</g>
<!-- 9 -->
<g id="node11" class="node">
<title>9</title>
<ellipse fill="none" stroke="black" stroke-width="2" cx="506" cy="-19.63" rx="18" ry="18"/>
<text text-anchor="middle" x="506" y="-14.2" font-family="Times New Roman,serif" font-size="14.00">9</text>
</g>
<!-- 3&#45;&gt;9 -->
<g id="edge9" class="edge">
<title>3&#45;&gt;9</title>
<path fill="none" stroke="black" d="M506,-198.67C506,-164.85 506,-89.81 506,-48.78"/>
<polygon fill="black" stroke="black" points="509.5,-48.93 506,-38.93 502.5,-48.93 509.5,-48.93"/>
<text text-anchor="middle" x="513.12" y="-113.7" font-family="Times New Roman,serif" font-size="14.00">b3</text>
</g>
<!-- 10 -->
<g id="node12" class="node">
<title>10</title>
<ellipse fill="none" stroke="black" stroke-width="2" cx="630" cy="-19.63" rx="19.63" ry="19.63"/>
<text text-anchor="middle" x="630" y="-14.2" font-family="Times New Roman,serif" font-size="14.00">10</text>
</g>
<!-- 3&#45;&gt;10 -->
<g id="edge10" class="edge">
<title>3&#45;&gt;10</title>
<path fill="none" stroke="black" d="M515.32,-201.32C536.33,-168.21 587.62,-87.41 613.9,-46"/>
<polygon fill="black" stroke="black" points="617.3,-48.16 619.71,-37.85 611.39,-44.41 617.3,-48.16"/>
<text text-anchor="middle" x="579.12" y="-113.7" font-family="Times New Roman,serif" font-size="14.00">b4</text>
</g>
<!-- 11 -->
<g id="node13" class="node">
<title>11</title>
<ellipse fill="none" stroke="black" stroke-width="2" cx="756" cy="-19.63" rx="19.63" ry="19.63"/>
<text text-anchor="middle" x="756" y="-14.2" font-family="Times New Roman,serif" font-size="14.00">11</text>
</g>
<!-- 4&#45;&gt;11 -->
<g id="edge11" class="edge">
<title>4&#45;&gt;11</title>
<path fill="none" stroke="black" d="M756,-198.67C756,-165.29 756,-91.76 756,-50.39"/>
<polygon fill="black" stroke="black" points="759.5,-50.64 756,-40.64 752.5,-50.64 759.5,-50.64"/>
<text text-anchor="middle" x="763.12" y="-113.7" font-family="Times New Roman,serif" font-size="14.00">b4</text>
</g>
<!-- 12 -->
<g id="node14" class="node">
<title>12</title>
<ellipse fill="none" stroke="black" stroke-width="2" cx="882" cy="-19.63" rx="19.63" ry="19.63"/>
<text text-anchor="middle" x="882" y="-14.2" font-family="Times New Roman,serif" font-size="14.00">12</text>
</g>
<!-- 4&#45;&gt;12 -->
<g id="edge12" class="edge">
<title>4&#45;&gt;12</title>
<path fill="none" stroke="black" d="M765.47,-201.32C786.88,-168.13 839.19,-87.01 865.84,-45.69"/>
<polygon fill="black" stroke="black" points="869.24,-47.87 871.72,-37.57 863.36,-44.08 869.24,-47.87"/>
<text text-anchor="middle" x="830.12" y="-113.7" font-family="Times New Roman,serif" font-size="14.00">b1</text>
</g>
<g id="node6" class="node">
<title></title>
</g>
<!-- &#45;&gt;0 -->
<g id="edge13" class="edge">
<title>&#45;&gt;0</title>
<path fill="none" stroke="blue" d="M445,-575.91C445,-545.15 445,-479.59 445,-441.93"/>
<polygon fill="blue" stroke="blue" points="448.5,-442.21 445,-432.21 441.5,-442.21 448.5,-442.21"/>
</g>
<!-- 5&#45;&gt;5 -->
<g id="edge14" class="edge">
<title>5&#45;&gt;5</title>
<path fill="none" stroke="black" d="M31.29,-32.05C49.59,-43.4 72,-39.26 72,-19.63 72,-3.37 56.63,2.26 40.95,-2.73"/>
<polygon fill="black" stroke="black" points="39.89,0.17 32.29,-7.21 42.83,-6.18 39.89,0.17"/>
<text text-anchor="middle" x="88.12" y="-14.2" font-family="Times New Roman,serif" font-size="14.00">sigma</text>
</g>
<!-- 6&#45;&gt;6 -->
<g id="edge15" class="edge">
<title>6&#45;&gt;6</title>
<path fill="none" stroke="black" stroke-dasharray="1,5" d="M153.29,-32.05C171.59,-43.4 194,-39.26 194,-19.63 194,-3.37 178.63,2.26 162.95,-2.73"/>
<polygon fill="black" stroke="black" points="161.89,0.17 154.29,-7.21 164.83,-6.18 161.89,0.17"/>
<text text-anchor="middle" x="210.12" y="-14.2" font-family="Times New Roman,serif" font-size="14.00">sigma</text>
</g>
<!-- 7&#45;&gt;7 -->
<g id="edge16" class="edge">
<title>7&#45;&gt;7</title>
<path fill="none" stroke="black" d="M275.29,-32.05C293.59,-43.4 316,-39.26 316,-19.63 316,-3.37 300.63,2.26 284.95,-2.73"/>
<polygon fill="black" stroke="black" points="283.89,0.17 276.29,-7.21 286.83,-6.18 283.89,0.17"/>
<text text-anchor="middle" x="332.12" y="-14.2" font-family="Times New Roman,serif" font-size="14.00">sigma</text>
</g>
<!-- 8&#45;&gt;8 -->
<g id="edge17" class="edge">
<title>8&#45;&gt;8</title>
<path fill="none" stroke="black" stroke-dasharray="1,5" d="M397.29,-32.05C415.59,-43.4 438,-39.26 438,-19.63 438,-3.37 422.63,2.26 406.95,-2.73"/>
<polygon fill="black" stroke="black" points="405.89,0.17 398.29,-7.21 408.83,-6.18 405.89,0.17"/>
<text text-anchor="middle" x="454.12" y="-14.2" font-family="Times New Roman,serif" font-size="14.00">sigma</text>
</g>
<!-- 9&#45;&gt;9 -->
<g id="edge18" class="edge">
<title>9&#45;&gt;9</title>
<path fill="none" stroke="black" d="M519.29,-32.05C537.59,-43.4 560,-39.26 560,-19.63 560,-3.37 544.63,2.26 528.95,-2.73"/>
<polygon fill="black" stroke="black" points="527.89,0.17 520.29,-7.21 530.83,-6.18 527.89,0.17"/>
<text text-anchor="middle" x="576.12" y="-14.2" font-family="Times New Roman,serif" font-size="14.00">sigma</text>
</g>
<!-- 10&#45;&gt;10 -->
<g id="edge19" class="edge">
<title>10&#45;&gt;10</title>
<path fill="none" stroke="black" stroke-dasharray="1,5" d="M645.09,-32.86C663.67,-43.18 685.63,-38.77 685.63,-19.63 685.63,-3.92 670.85,1.87 655.29,-2.26"/>
<polygon fill="black" stroke="black" points="654.04,0.61 646.09,-6.39 656.68,-5.88 654.04,0.61"/>
<text text-anchor="middle" x="701.75" y="-14.2" font-family="Times New Roman,serif" font-size="14.00">sigma</text>
</g>
<!-- 11&#45;&gt;11 -->
<g id="edge20" class="edge">
<title>11&#45;&gt;11</title>
<path fill="none" stroke="black" stroke-dasharray="1,5" d="M771.09,-32.86C789.67,-43.18 811.63,-38.77 811.63,-19.63 811.63,-3.92 796.85,1.87 781.29,-2.26"/>
<polygon fill="black" stroke="black" points="780.04,0.61 772.09,-6.39 782.68,-5.88 780.04,0.61"/>
<text text-anchor="middle" x="827.75" y="-14.2" font-family="Times New Roman,serif" font-size="14.00">sigma</text>
</g>
<!-- 12&#45;&gt;12 -->
<g id="edge21" class="edge">
<title>12&#45;&gt;12</title>
<path fill="none" stroke="black" d="M897.09,-32.86C915.67,-43.18 937.63,-38.77 937.63,-19.63 937.63,-3.92 922.85,1.87 907.29,-2.26"/>
<polygon fill="black" stroke="black" points="906.04,0.61 898.09,-6.39 908.68,-5.88 906.04,0.61"/>
<text text-anchor="middle" x="953.75" y="-14.2" font-family="Times New Roman,serif" font-size="14.00">sigma</text>
</g>
</g>
</svg>
