<?xml version="1.0" encoding="UTF-8" standalone="no"?>
<!DOCTYPE svg PUBLIC "-//W3C//DTD SVG 1.1//EN"
 "http://www.w3.org/Graphics/SVG/1.1/DTD/svg11.dtd">
<!-- Generated by graphviz version 8.0.5 (20230430.1635)
 -->
<!-- Pages: 1 -->
<svg width="722px" height="617px"
 viewBox="0.00 0.00 722.25 616.94" xmlns="http://www.w3.org/2000/svg" xmlns:xlink="http://www.w3.org/1999/xlink">
<g id="graph0" class="graph" transform="scale(1.0 1.0) rotate(0.0) translate(4.0 612.94)">
<!-- 0 -->
<g id="node1" class="node">
<title>0</title>
<ellipse fill="none" stroke="black" stroke-width="2" cx="323" cy="-409.94" rx="18" ry="18"/>
<text text-anchor="middle" x="323" y="-404.51" font-family="Times New Roman,serif" font-size="14.00">0</text>
</g>
<!-- 1 -->
<g id="node2" class="node">
<title>1</title>
<ellipse fill="none" stroke="black" stroke-width="2" cx="140" cy="-214.19" rx="18" ry="18"/>
<text text-anchor="middle" x="140" y="-208.76" font-family="Times New Roman,serif" font-size="14.00">1</text>
</g>
<!-- 0&#45;&gt;1 -->
<g id="edge1" class="edge">
<title>0&#45;&gt;1</title>
<path fill="none" stroke="black" d="M310.99,-396.23C279.96,-363.37 196.9,-275.43 159.15,-235.46"/>
<polygon fill="black" stroke="black" points="162.22,-233.56 152.81,-228.7 157.14,-238.37 162.22,-233.56"/>
<text text-anchor="middle" x="243.38" y="-306.64" font-family="Times New Roman,serif" font-size="14.00">a1</text>
</g>
<!-- 2 -->
<g id="node3" class="node">
<title>2</title>
<ellipse fill="none" stroke="black" stroke-width="2" cx="323" cy="-214.19" rx="18" ry="18"/>
<text text-anchor="middle" x="323" y="-208.76" font-family="Times New Roman,serif" font-size="14.00">2</text>
</g>
<!-- 0&#45;&gt;2 -->
<g id="edge2" class="edge">
<title>0&#45;&gt;2</title>
<path fill="none" stroke="black" d="M323,-391.74C323,-358.29 323,-284.17 323,-243.41"/>
<polygon fill="black" stroke="black" points="326.5,-243.62 323,-233.62 319.5,-243.62 326.5,-243.62"/>
<text text-anchor="middle" x="329.38" y="-306.64" font-family="Times New Roman,serif" font-size="14.00">a2</text>
</g>
<!-- 3 -->
<g id="node4" class="node">
<title>3</title>
<ellipse fill="none" stroke="black" stroke-width="2" cx="506" cy="-214.19" rx="18" ry="18"/>
<text text-anchor="middle" x="506" y="-208.76" font-family="Times New Roman,serif" font-size="14.00">3</text>
</g>
<!-- 0&#45;&gt;3 -->
<g id="edge3" class="edge">
<title>0&#45;&gt;3</title>
<path fill="none" stroke="black" d="M335.01,-396.23C366.04,-363.37 449.1,-275.43 486.85,-235.46"/>
<polygon fill="black" stroke="black" points="488.86,-238.37 493.19,-228.7 483.78,-233.56 488.86,-238.37"/>
<text text-anchor="middle" x="426.38" y="-306.64" font-family="Times New Roman,serif" font-size="14.00">a3</text>
</g>
<!-- 4 -->
<g id="node6" class="node">
<title>4</title>
<ellipse fill="none" stroke="black" stroke-width="2" cx="18" cy="-18.44" rx="18" ry="18"/>
<text text-anchor="middle" x="18" y="-13.01" font-family="Times New Roman,serif" font-size="14.00">4</text>
</g>
<!-- 1&#45;&gt;4 -->
<g id="edge4" class="edge">
<title>1&#45;&gt;4</title>
<path fill="none" stroke="black" d="M130.63,-198.31C109.65,-164.99 58.74,-84.14 33.18,-43.54"/>
<polygon fill="black" stroke="black" points="35.69,-41.97 27.4,-35.37 29.77,-45.7 35.69,-41.97"/>
<text text-anchor="middle" x="90.12" y="-110.89" font-family="Times New Roman,serif" font-size="14.00">b1</text>
</g>
<!-- 5 -->
<g id="node7" class="node">
<title>5</title>
<ellipse fill="none" stroke="black" stroke-width="2" cx="140" cy="-18.44" rx="18" ry="18"/>
<text text-anchor="middle" x="140" y="-13.01" font-family="Times New Roman,serif" font-size="14.00">5</text>
</g>
<!-- 1&#45;&gt;5 -->
<g id="edge5" class="edge">
<title>1&#45;&gt;5</title>
<path fill="none" stroke="black" d="M140,-195.99C140,-162.54 140,-88.42 140,-47.66"/>
<polygon fill="black" stroke="black" points="143.5,-47.87 140,-37.87 136.5,-47.87 143.5,-47.87"/>
<text text-anchor="middle" x="147.12" y="-110.89" font-family="Times New Roman,serif" font-size="14.00">b2</text>
</g>
<!-- 6 -->
<g id="node8" class="node">
<title>6</title>
<ellipse fill="none" stroke="black" stroke-width="2" cx="262" cy="-18.44" rx="18" ry="18"/>
<text text-anchor="middle" x="262" y="-13.01" font-family="Times New Roman,serif" font-size="14.00">6</text>
</g>
<!-- 2&#45;&gt;6 -->
<g id="edge6" class="edge">
<title>2&#45;&gt;6</title>
<path fill="none" stroke="black" d="M317.27,-196.86C308.25,-171.17 291.75,-124.19 291.75,-124.19 291.75,-124.19 278.5,-77.53 269.68,-46.49"/>
<polygon fill="black" stroke="black" points="272.88,-45.93 266.78,-37.27 266.15,-47.84 272.88,-45.93"/>
<text text-anchor="middle" x="299.12" y="-110.89" font-family="Times New Roman,serif" font-size="14.00">b2</text>
</g>
<!-- 7 -->
<g id="node9" class="node">
<title>7</title>
<ellipse fill="none" stroke="black" stroke-width="2" cx="384" cy="-18.44" rx="18" ry="18"/>
<text text-anchor="middle" x="384" y="-13.01" font-family="Times New Roman,serif" font-size="14.00">7</text>
</g>
<!-- 2&#45;&gt;7 -->
<g id="edge7" class="edge">
<title>2&#45;&gt;7</title>
<path fill="none" stroke="black" d="M328.2,-196.67C338.76,-163.14 362.78,-86.83 375.59,-46.15"/>
<polygon fill="black" stroke="black" points="379.15,-47.51 378.81,-36.92 372.47,-45.4 379.15,-47.51"/>
<text text-anchor="middle" x="363.12" y="-110.89" font-family="Times New Roman,serif" font-size="14.00">b3</text>
</g>
<!-- 8 -->
<g id="node10" class="node">
<title>8</title>
<ellipse fill="none" stroke="black" stroke-width="2" cx="506" cy="-18.44" rx="18" ry="18"/>
<text text-anchor="middle" x="506" y="-13.01" font-family="Times New Roman,serif" font-size="14.00">8</text>
</g>
<!-- 3&#45;&gt;8 -->
<g id="edge8" class="edge">
<title>3&#45;&gt;8</title>
<path fill="none" stroke="black" d="M506,-195.99C506,-162.54 506,-88.42 506,-47.66"/>
<polygon fill="black" stroke="black" points="509.5,-47.87 506,-37.87 502.5,-47.87 509.5,-47.87"/>
<text text-anchor="middle" x="513.12" y="-110.89" font-family="Times New Roman,serif" font-size="14.00">b3</text>
</g>
<!-- 9 -->
<g id="node11" class="node">
<title>9</title>
<ellipse fill="none" stroke="black" stroke-width="2" cx="628" cy="-18.44" rx="18" ry="18"/>
<text text-anchor="middle" x="628" y="-13.01" font-family="Times New Roman,serif" font-size="14.00">9</text>
</g>
<!-- 3&#45;&gt;9 -->
<g id="edge9" class="edge">
<title>3&#45;&gt;9</title>
<path fill="none" stroke="black" d="M515.37,-198.31C536.35,-164.99 587.26,-84.14 612.82,-43.54"/>
<polygon fill="black" stroke="black" points="616.23,-45.7 618.6,-35.37 610.31,-41.97 616.23,-45.7"/>
<text text-anchor="middle" x="578.12" y="-110.89" font-family="Times New Roman,serif" font-size="14.00">b1</text>
</g>
<g id="node5" class="node">
<title></title>
</g>
<!-- &#45;&gt;0 -->
<g id="edge10" class="edge">
<title>&#45;&gt;0</title>
<path fill="none" stroke="blue" d="M323,-573.1C323,-542.34 323,-476.77 323,-439.11"/>
<polygon fill="blue" stroke="blue" points="326.5,-439.39 323,-429.39 319.5,-439.39 326.5,-439.39"/>
</g>
<!-- 4&#45;&gt;4 -->
<g id="edge11" class="edge">
<title>4&#45;&gt;4</title>
<path fill="none" stroke="black" d="M31.56,-30.82C49.81,-41.78 72,-37.65 72,-18.44 72,-2.53 56.78,3.04 41.18,-1.74"/>
<polygon fill="black" stroke="black" points="40.25,1.23 32.56,-6.06 43.12,-5.16 40.25,1.23"/>
<text text-anchor="middle" x="88.12" y="-13.01" font-family="Times New Roman,serif" font-size="14.00">sigma</text>
</g>
<!-- 5&#45;&gt;5 -->
<g id="edge12" class="edge">
<title>5&#45;&gt;5</title>
<path fill="none" stroke="black" stroke-dasharray="1,5" d="M153.56,-30.82C171.81,-41.78 194,-37.65 194,-18.44 194,-2.53 178.78,3.04 163.18,-1.74"/>
<polygon fill="black" stroke="black" points="162.25,1.23 154.56,-6.06 165.12,-5.16 162.25,1.23"/>
<text text-anchor="middle" x="210.12" y="-13.01" font-family="Times New Roman,serif" font-size="14.00">sigma</text>
</g>
<!-- 6&#45;&gt;6 -->
<g id="edge13" class="edge">
<title>6&#45;&gt;6</title>
<path fill="none" stroke="black" d="M275.56,-30.82C293.81,-41.78 316,-37.65 316,-18.44 316,-2.53 300.78,3.04 285.18,-1.74"/>
<polygon fill="black" stroke="black" points="284.25,1.23 276.56,-6.06 287.12,-5.16 284.25,1.23"/>
<text text-anchor="middle" x="332.12" y="-13.01" font-family="Times New Roman,serif" font-size="14.00">sigma</text>
</g>
<!-- 7&#45;&gt;7 -->
<g id="edge14" class="edge">
<title>7&#45;&gt;7</title>
<path fill="none" stroke="black" stroke-dasharray="1,5" d="M397.56,-30.82C415.81,-41.78 438,-37.65 438,-18.44 438,-2.53 422.78,3.04 407.18,-1.74"/>
<polygon fill="black" stroke="black" points="406.25,1.23 398.56,-6.06 409.12,-5.16 406.25,1.23"/>
<text text-anchor="middle" x="454.12" y="-13.01" font-family="Times New Roman,serif" font-size="14.00">sigma</text>
</g>
<!-- 8&#45;&gt;8 -->
<g id="edge15" class="edge">
<title>8&#45;&gt;8</title>
<path fill="none" stroke="black" stroke-dasharray="1,5" d="M519.56,-30.82C537.81,-41.78 560,-37.65 560,-18.44 560,-2.53 544.78,3.04 529.18,-1.74"/>
<polygon fill="black" stroke="black" points="528.25,1.23 520.56,-6.06 531.12,-5.16 528.25,1.23"/>
<text text-anchor="middle" x="576.12" y="-13.01" font-family="Times New Roman,serif" font-size="14.00">sigma</text>
</g>
<!-- 9&#45;&gt;9 -->
<g id="edge16" class="edge">
<title>9&#45;&gt;9</title>
<path fill="none" stroke="black" stroke-dasharray="1,5" d="M641.56,-30.82C659.81,-41.78 682,-37.65 682,-18.44 682,-2.53 666.78,3.04 651.18,-1.74"/>
<polygon fill="black" stroke="black" points="650.25,1.23 642.56,-6.06 653.12,-5.16 650.25,1.23"/>
<text text-anchor="middle" x="698.12" y="-13.01" font-family="Times New Roman,serif" font-size="14.00">sigma</text>
</g>
</g>
</svg>
